<svg width="389" height="243" viewBox="0 0 389 243" fill="none" xmlns="http://www.w3.org/2000/svg">
<path d="M185.203 205.752C184.118 205.752 183.023 205.735 181.948 205.701L181.972 204.919C183.516 204.968 185.091 204.981 186.643 204.96L186.653 205.742C186.17 205.748 185.687 205.752 185.203 205.752ZM191.356 205.57L191.31 204.79C192.856 204.698 194.422 204.57 195.965 204.408L196.046 205.186C194.492 205.349 192.914 205.479 191.356 205.57ZM177.249 205.449C175.69 205.329 174.115 205.172 172.566 204.982L172.662 204.206C174.198 204.394 175.761 204.55 177.309 204.668L177.249 205.449ZM200.713 204.588L200.596 203.815C202.132 203.582 203.68 203.311 205.196 203.009L205.348 203.777C203.821 204.08 202.261 204.353 200.713 204.588ZM167.91 204.302C166.37 204.041 164.815 203.741 163.29 203.409L163.455 202.644C164.97 202.974 166.512 203.272 168.041 203.531L167.91 204.302ZM209.942 202.752L209.754 201.993C211.262 201.62 212.778 201.207 214.261 200.767L214.483 201.517C212.989 201.961 211.461 202.377 209.942 202.752ZM158.715 202.304C157.204 201.902 155.684 201.459 154.196 200.988L154.432 200.243C155.908 200.71 157.417 201.149 158.916 201.548L158.715 202.304ZM218.963 200.074L218.706 199.335C220.17 198.826 221.641 198.275 223.081 197.699L223.371 198.425C221.921 199.006 220.437 199.561 218.963 200.074ZM149.731 199.461C148.264 198.921 146.788 198.339 145.343 197.73L145.647 197.009C147.08 197.613 148.545 198.191 150.001 198.727L149.731 199.461ZM227.689 196.579L227.366 195.867C228.771 195.228 230.184 194.546 231.564 193.839L231.92 194.536C230.528 195.248 229.105 195.935 227.689 196.579V196.579ZM141.041 195.799C139.631 195.126 138.215 194.411 136.834 193.672L137.202 192.982C138.573 193.715 139.978 194.425 141.377 195.093L141.041 195.799ZM236.052 192.3L235.665 191.621C237.013 190.851 238.358 190.042 239.663 189.216L240.081 189.877C238.766 190.71 237.411 191.525 236.052 192.3H236.052ZM132.73 191.354C131.388 190.556 130.045 189.713 128.737 188.851L129.167 188.198C130.465 189.054 131.798 189.889 133.129 190.682L132.73 191.354ZM243.995 187.271L243.548 186.63C244.817 185.743 246.083 184.813 247.311 183.868L247.788 184.488C246.55 185.441 245.274 186.377 243.995 187.271ZM124.864 186.169C123.602 185.252 122.342 184.291 121.118 183.313L121.606 182.702C122.82 183.672 124.071 184.626 125.323 185.536L124.864 186.169ZM251.451 181.536L250.947 180.937C252.13 179.938 253.307 178.898 254.446 177.843L254.976 178.418C253.829 179.48 252.642 180.529 251.451 181.536ZM117.507 180.29C116.332 179.26 115.164 178.189 114.037 177.106L114.579 176.541C115.697 177.616 116.856 178.679 118.022 179.701L117.507 180.29ZM258.357 175.141L257.801 174.592C258.891 173.486 259.97 172.342 261.006 171.191L261.587 171.714C260.543 172.874 259.456 174.027 258.357 175.141V175.141ZM110.717 173.768C109.639 172.633 108.575 171.46 107.553 170.282L108.144 169.77C109.157 170.939 110.214 172.103 111.284 173.228L110.717 173.768ZM264.657 168.143L264.054 167.646C265.039 166.446 266.008 165.208 266.937 163.966L267.563 164.434C266.628 165.686 265.65 166.934 264.657 168.143ZM104.551 166.658C103.583 165.433 102.63 164.169 101.718 162.901L102.352 162.444C103.257 163.703 104.203 164.957 105.164 166.173L104.551 166.658ZM270.296 160.596L269.65 160.157C270.522 158.872 271.375 157.55 272.187 156.226L272.854 156.636C272.035 157.969 271.175 159.302 270.296 160.596H270.296ZM99.0597 159.02C98.208 157.713 97.3745 156.368 96.582 155.022L97.2552 154.625C98.0418 155.961 98.8691 157.295 99.7142 158.592L99.0597 159.02ZM275.227 152.561L274.543 152.183C275.293 150.824 276.022 149.428 276.71 148.034L277.411 148.381C276.718 149.785 275.983 151.192 275.227 152.561ZM94.2899 150.916C93.561 149.537 92.8541 148.122 92.1891 146.711L92.8959 146.378C93.556 147.778 94.2573 149.182 94.9807 150.55L94.2899 150.916ZM279.401 144.104L278.685 143.79C279.308 142.366 279.906 140.908 280.463 139.457L281.192 139.737C280.631 141.2 280.028 142.669 279.401 144.104ZM90.2837 142.416C89.6845 140.977 89.1107 139.504 88.5783 138.039L89.3129 137.771C89.8412 139.225 90.4106 140.687 91.005 142.115L90.2837 142.416ZM282.781 135.291L282.039 135.045C282.527 133.573 282.987 132.07 283.407 130.575L284.159 130.787C283.736 132.293 283.272 133.808 282.781 135.291ZM87.0726 133.576C86.6076 132.085 86.1706 130.562 85.7738 129.049L86.5299 128.85C86.9236 130.352 87.3573 131.864 87.8188 133.343L87.0726 133.576ZM285.328 126.224L284.567 126.047C284.917 124.539 285.237 122.999 285.518 121.471L286.287 121.612C286.003 123.153 285.681 124.704 285.328 126.224ZM84.6853 124.466C84.3594 122.938 84.0644 121.382 83.8087 119.839L84.5796 119.71C84.8336 121.242 85.1264 122.787 85.4498 124.303L84.6853 124.466ZM287.032 116.962L286.257 116.856C286.467 115.324 286.645 113.762 286.785 112.212L287.563 112.283C287.422 113.844 287.243 115.418 287.032 116.962ZM83.145 115.176C82.9606 113.628 82.8093 112.05 82.695 110.488L83.4747 110.431C83.5879 111.982 83.7383 113.547 83.9213 115.084L83.145 115.176ZM287.882 107.584L287.101 107.549C287.17 105.999 287.206 104.426 287.206 102.876H287.987C287.987 104.438 287.952 106.022 287.882 107.584V107.584ZM82.4582 105.784C82.4315 104.825 82.4179 103.846 82.4177 102.876C82.4177 102.274 82.4229 101.673 82.4332 101.073L83.2148 101.087C83.2045 101.682 83.1994 102.278 83.1994 102.876C83.1995 103.839 83.2131 104.81 83.2394 105.763L82.4582 105.784ZM287.2 101.785C287.184 100.233 287.132 98.6614 287.046 97.1116L287.826 97.068C287.913 98.6296 287.965 100.214 287.982 101.776L287.2 101.785ZM83.4003 96.4166L82.6202 96.3677C82.7177 94.8045 82.8524 93.2258 83.0202 91.675L83.7972 91.7593C83.6306 93.2983 83.4973 94.8651 83.4003 96.4166ZM286.681 92.4522C286.524 90.9099 286.33 89.3495 286.103 87.8138L286.877 87.6996C287.105 89.2469 287.301 90.8192 287.458 92.3731L286.681 92.4522ZM84.4058 87.1253L83.6333 87.0057C83.8728 85.4581 84.151 83.8982 84.4604 82.3689L85.2264 82.524C84.9195 84.0416 84.6434 85.5897 84.4058 87.1253ZM285.315 83.2076C285.017 81.6815 284.68 80.1453 284.315 78.6418L285.074 78.4569C285.442 79.9718 285.781 81.5199 286.082 83.0574L285.315 83.2076ZM86.2572 77.9654L85.499 77.7752C85.8786 76.26 86.299 74.7322 86.7486 73.234L87.497 73.459C87.0511 74.9458 86.6339 76.4619 86.2572 77.9654ZM283.106 74.1268C282.67 72.6372 282.193 71.1388 281.69 69.6727L282.429 69.4183C282.936 70.8957 283.417 72.4059 283.856 73.9067L283.106 74.1268ZM88.9479 69.0025L88.2105 68.7431C88.73 67.2642 89.2908 65.7782 89.8774 64.3265L90.6022 64.6198C90.02 66.0604 89.4633 67.535 88.9479 69.0025ZM280.07 65.2885C279.5 63.8488 278.889 62.4039 278.255 60.9937L278.968 60.6725C279.607 62.0935 280.223 63.5495 280.797 65.0001L280.07 65.2885ZM92.4561 60.3197L91.7458 59.9931C92.3986 58.5702 93.0934 57.1432 93.811 55.752L94.5056 56.1107C93.7934 57.4914 93.1039 58.9075 92.4561 60.3197ZM276.245 56.7853C275.545 55.4042 274.804 54.0202 274.042 52.6724L274.722 52.2869C275.49 53.6453 276.237 55.0398 276.942 56.4316L276.245 56.7853ZM96.7461 52.0016L96.0687 51.6112C96.8484 50.2561 97.6707 48.8996 98.5128 47.5798L99.1715 48.0008C98.3359 49.3106 97.5197 50.6568 96.7461 52.0016ZM271.653 48.663C270.827 47.347 269.962 46.036 269.082 44.7662L269.724 44.3204C270.611 45.5999 271.483 46.9209 272.315 48.247L271.653 48.663ZM101.777 44.1163L101.138 43.6655C102.039 42.3864 102.981 41.1115 103.939 39.8761L104.557 40.3555C103.606 41.5817 102.671 42.8469 101.777 44.1163ZM266.336 40.99C265.394 39.7552 264.413 38.5277 263.42 37.3416L264.019 36.8391C265.02 38.0343 266.008 39.271 266.957 40.5152L266.336 40.99ZM107.504 36.7267L106.909 36.2195C107.92 35.0307 108.974 33.8474 110.041 32.7026L110.613 33.2363C109.554 34.3725 108.508 35.547 107.504 36.7267ZM260.341 33.8289C259.291 32.685 258.201 31.5513 257.104 30.4595L257.655 29.9045C258.761 31.0048 259.858 32.147 260.916 33.2995L260.341 33.8289ZM113.876 29.8923L113.329 29.333C114.447 28.2386 115.604 27.1566 116.767 26.1172L117.287 26.7009C116.133 27.7323 114.985 28.8061 113.876 29.8923ZM253.717 27.2403C252.567 26.1957 251.378 25.1655 250.186 24.1782L250.685 23.5754C251.886 24.5701 253.083 25.6082 254.242 26.6608L253.717 27.2403ZM120.84 23.6682L120.346 23.0616C121.555 22.0763 122.804 21.1045 124.06 20.1732L124.525 20.8015C123.279 21.726 122.039 22.6903 120.84 23.6682ZM246.519 21.2794C245.278 20.3437 244 19.4256 242.722 18.5506L243.164 17.9051C244.451 18.7865 245.738 19.7115 246.989 20.6545L246.519 21.2794ZM128.336 18.107L127.9 17.4579C129.194 16.5866 130.526 15.7334 131.859 14.9215L132.265 15.59C130.942 16.3956 129.621 17.2425 128.336 18.107ZM238.804 15.9981C237.483 15.1799 236.127 14.3823 234.773 13.6271L235.153 12.9437C236.518 13.7046 237.885 14.5086 239.216 15.3327L238.804 15.9981ZM136.304 13.256L135.929 12.5696C137.298 11.8199 138.701 11.0926 140.101 10.4075L140.444 11.1103C139.056 11.7901 137.663 12.5119 136.304 13.256ZM230.636 11.4434C229.245 10.7499 227.82 10.0799 226.401 9.45209L226.717 8.73662C228.147 9.3692 229.583 10.0444 230.985 10.7432L230.636 11.4434ZM144.676 9.15739L144.366 8.4396C145.796 7.81905 147.259 7.2239 148.715 6.67058L148.992 7.40211C147.548 7.95104 146.096 8.54161 144.676 9.15739H144.676ZM222.078 7.65748C220.631 7.09577 219.15 6.55982 217.675 6.06475L217.924 5.32292C219.41 5.82199 220.902 6.36194 222.361 6.92825L222.078 7.65748ZM153.395 5.84377L153.151 5.1004C154.637 4.61298 156.152 4.15401 157.656 3.73668L157.865 4.49036C156.373 4.90463 154.869 5.35997 153.395 5.84377V5.84377ZM213.215 4.68059C211.724 4.25524 210.203 3.85911 208.695 3.50328L208.875 2.74197C210.395 3.10047 211.927 3.49965 213.429 3.92806L213.215 4.68059ZM162.392 3.34456L162.218 2.58191C163.741 2.23372 165.292 1.91647 166.829 1.63914L166.968 2.40886C165.443 2.68427 163.903 2.99905 162.392 3.34456ZM204.127 2.53607C202.605 2.25013 201.054 1.99573 199.518 1.77991L199.627 1.00522C201.175 1.22277 202.737 1.47909 204.271 1.76711L204.127 2.53607ZM171.581 1.68479L171.478 0.909341C173.025 0.702682 174.599 0.528872 176.155 0.393264L176.223 1.17254C174.678 1.30738 173.117 1.47966 171.581 1.68479ZM194.88 1.23595C193.341 1.09079 191.774 0.978862 190.222 0.903802L190.26 0.122258C191.823 0.198085 193.402 0.310771 194.953 0.457094L194.88 1.23595ZM180.883 0.872482L180.85 0.0909141C182.287 0.030941 183.751 0.00038334 185.203 0L185.556 0.00057501L185.554 0.782901L185.203 0.782326C183.762 0.782714 182.309 0.81308 180.883 0.872482Z" fill="#3F3D56"/>
<path d="M284.443 186.241C282.485 186.241 280.899 184.653 280.899 182.693C280.899 180.734 282.485 179.146 284.443 179.146C286.4 179.146 287.987 180.734 287.987 182.693C287.985 184.652 286.399 186.239 284.443 186.241ZM284.443 179.737C282.812 179.737 281.489 181.061 281.489 182.693C281.489 184.326 282.812 185.65 284.443 185.65C286.074 185.65 287.397 184.326 287.397 182.693C287.395 181.062 286.073 179.739 284.443 179.737Z" fill="#2F2E41"/>
<path d="M160.392 69.7251V95.2527C160.391 95.7437 159.994 96.1414 159.503 96.1427H158.87V229.125C158.869 236.788 152.661 243 145.002 243H61.9569C58.2795 243 54.7529 241.538 52.1529 238.935C49.5529 236.333 48.0926 232.804 48.0933 229.125V100.807H47.6349C47.2887 100.807 47.0073 100.527 47.0057 100.181V85.6527C47.0056 85.4857 47.0719 85.3255 47.1899 85.2074C47.308 85.0893 47.468 85.023 47.6349 85.023H48.0933V79.5506H47.6311C47.2676 79.5492 46.9746 79.2536 46.9746 78.8899V64.5598C46.9746 64.1974 47.2689 63.9039 47.6311 63.9029H48.0933V56.4328H47.6233C47.4687 56.433 47.3204 56.3716 47.211 56.2623C47.1017 56.1529 47.0404 56.0045 47.0406 55.8498V48.0298C47.0399 47.7069 47.3005 47.4444 47.6233 47.4429H48.0933V31.6087C48.0936 23.9478 54.3004 17.7372 61.9569 17.7372H145.002C152.659 17.7372 158.868 23.9471 158.87 31.6087V68.8351H159.503C159.994 68.8364 160.391 69.2341 160.392 69.7251Z" fill="#3F3D56"/>
<path d="M108.998 21.2847H94.8243C93.8447 21.2847 93.0505 22.0788 93.0505 23.0584C93.0505 24.038 93.8447 24.8321 94.8243 24.8321H108.998C109.978 24.8321 110.772 24.038 110.772 23.0584C110.772 22.0788 109.978 21.2847 108.998 21.2847Z" fill="#E6E8EC"/>
<path d="M110.772 24.8321C111.751 24.8321 112.544 24.038 112.544 23.0584C112.544 22.0788 111.751 21.2847 110.772 21.2847C109.793 21.2847 109 22.0788 109 23.0584C109 24.038 109.793 24.8321 110.772 24.8321Z" fill="#E6E8EC"/>
<path d="M151.532 31.9068V228.834C151.529 233.72 147.576 237.679 142.699 237.679H62.8956C60.5526 237.683 58.3042 236.753 56.6471 235.093C54.9899 233.434 54.0602 231.182 54.0632 228.834V31.9068C54.0632 29.5601 54.9937 27.3094 56.6501 25.65C58.3065 23.9905 60.5531 23.0584 62.8956 23.0584H74.8399V24.5937C74.8399 28.6175 78.0959 31.8795 82.1124 31.8795H122.699C126.715 31.8795 129.971 28.6175 129.971 24.5937V23.0584H142.699C145.042 23.0584 147.289 23.9896 148.945 25.6492C150.602 27.3088 151.532 29.5599 151.532 31.9068Z" fill="#FFD15C"/>
<path opacity="0.2" d="M149.759 86.9124H59.3796V131.255H149.759V86.9124Z" fill="black"/>
<path d="M291.532 37.2482H201.152V81.5912H291.532V37.2482Z" fill="#F2F2F2"/>
<path d="M149.759 156.088H59.3796V200.431H149.759V156.088Z" fill="#3F3D56"/>
<path d="M139.127 56.7591C144.02 56.7591 147.987 52.7885 147.987 47.8905C147.987 42.9925 144.02 39.0219 139.127 39.0219C134.233 39.0219 130.266 42.9925 130.266 47.8905C130.266 52.7885 134.233 56.7591 139.127 56.7591Z" fill="white"/>
<path d="M142.671 47.6371H139.379V44.3431H138.873V47.6371H135.582V48.144H138.873V51.438H139.379V48.144H142.671V47.6371Z" fill="#3F3D56"/>
<path d="M280.899 31.927H190.519V76.2701H280.899V31.927Z" fill="#3F3D56"/>
<path d="M232.012 61.9935C234.443 70.8098 242.768 76.2701 242.768 76.2701C242.768 76.2701 247.152 67.4361 244.722 58.6197C242.291 49.8033 233.966 44.3431 233.966 44.3431C233.966 44.3431 229.582 53.1771 232.012 61.9935Z" fill="white"/>
<path d="M234.773 60.1145C241.134 66.4819 241.911 76.2701 241.911 76.2701C241.911 76.2701 232.374 75.7346 226.012 69.3672C219.65 62.9999 218.873 53.2117 218.873 53.2117C218.873 53.2117 228.411 53.7471 234.773 60.1145Z" fill="#FFD15C"/>
<path d="M95.5567 184.38C97.9872 193.197 106.312 198.657 106.312 198.657C106.312 198.657 110.696 189.823 108.266 181.007C105.836 172.19 97.5106 166.73 97.5106 166.73C97.5106 166.73 93.1262 175.564 95.5567 184.38Z" fill="white"/>
<path d="M98.3169 184.275C104.679 190.642 105.456 200.431 105.456 200.431C105.456 200.431 95.9183 199.895 89.5565 193.528C83.1948 187.16 82.4177 177.372 82.4177 177.372C82.4177 177.372 91.9551 177.908 98.3169 184.275Z" fill="#FFD15C"/>
<path d="M115.355 184.38C112.924 193.197 104.599 198.657 104.599 198.657C104.599 198.657 100.215 189.823 102.645 181.007C105.076 172.19 113.401 166.73 113.401 166.73C113.401 166.73 117.785 175.564 115.355 184.38Z" fill="white"/>
<path d="M112.594 184.275C106.233 190.642 105.456 200.431 105.456 200.431C105.456 200.431 114.993 199.895 121.355 193.528C127.717 187.16 128.494 177.372 128.494 177.372C128.494 177.372 118.956 177.908 112.594 184.275Z" fill="#FFD15C"/>
<path d="M210.013 133.029H202.924V125.934H210.013V133.029ZM203.469 132.483H209.467V126.48H203.469V132.483Z" fill="#3F3D56"/>
<path d="M5.17485 177.372L0.898682 172.784L5.48326 168.504L9.75944 173.092L5.17485 177.372ZM1.58027 172.807L5.19858 176.69L9.07784 173.069L5.45953 169.186L1.58027 172.807Z" fill="#2F2E41"/>
<path d="M11.5316 56.7591C13.4891 56.7591 15.0759 55.1709 15.0759 53.2117C15.0759 51.2525 13.4891 49.6642 11.5316 49.6642C9.57414 49.6642 7.9873 51.2525 7.9873 53.2117C7.9873 55.1709 9.57414 56.7591 11.5316 56.7591Z" fill="#3F3D56"/>
<path d="M12.4178 65.6277C7.75891 65.6277 3.55873 62.8188 1.77584 58.5107C-0.00705743 54.2026 0.978441 49.2437 4.2728 45.9464C7.56716 42.6492 12.5216 41.6628 16.8259 43.4473C21.1302 45.2317 23.9367 49.4356 23.9367 54.0987C23.9295 60.4631 18.7766 65.6206 12.4178 65.6277ZM12.4178 43.4565C6.54553 43.4565 1.78509 48.2212 1.78509 54.0987C1.78509 59.9762 6.54553 64.7409 12.4178 64.7409C18.2901 64.7409 23.0506 59.9762 23.0506 54.0987C23.0439 48.224 18.2874 43.4633 12.4178 43.4565Z" fill="#2F2E41"/>
<path d="M167.481 81.5912H77.1012V125.934H167.481V81.5912Z" fill="#3F3D56"/>
<path d="M124.949 97.5547H123.177V127.708H124.949V97.5547Z" fill="white"/>
<path d="M123.177 101.102C125.135 101.102 126.721 99.514 126.721 97.5548C126.721 95.5956 125.135 94.0073 123.177 94.0073C121.22 94.0073 119.633 95.5956 119.633 97.5548C119.633 99.514 121.22 101.102 123.177 101.102Z" fill="#FFD15C"/>
<path d="M124.949 113.518C124.949 113.518 124.29 101.603 110.772 102.988Z" fill="white"/>
<path d="M249 202.503L198.305 218.168L135.243 178.863L135.24 178.861L135.033 178.735L134.999 178.712L134.498 178.402L128.494 174.67C128.505 174.57 128.519 174.472 128.539 174.377C128.631 173.915 128.844 173.486 129.156 173.132C129.265 173.005 129.385 172.887 129.513 172.779H129.516C129.573 172.732 129.632 172.684 129.694 172.64C129.757 172.592 129.822 172.547 129.89 172.505C131.051 171.736 132.801 171.409 134.625 171.311C138.564 171.126 142.483 171.965 145.99 173.744C153.079 177.286 168.316 184.254 170.692 179.985C173.807 174.391 138.406 112.012 138.406 112.012C135.492 104.613 137.624 102.196 138.961 101.435C139.001 101.413 139.04 101.39 139.077 101.371C139.219 101.299 139.366 101.237 139.516 101.186C139.595 101.158 139.675 101.135 139.757 101.116C139.778 101.11 139.8 101.106 139.822 101.102L144.518 107.267L144.589 107.36L144.841 107.693L144.917 107.793L173.383 145.159C216.997 121.942 232.007 184.041 232.007 184.041L249 202.503Z" fill="#FBBEBE"/>
<path d="M144.443 105.763C144.253 106.177 143.85 106.435 143.414 106.423C143.272 106.422 143.132 106.402 142.995 106.364C142.045 106.094 140.944 104.994 140.122 103.493C139.32 102.027 138.991 100.552 139.177 99.5738C139.305 99.5045 139.437 99.445 139.573 99.3959C139.644 99.3687 139.717 99.3462 139.79 99.3285C139.461 100.01 139.657 101.56 140.567 103.223C141.31 104.585 142.316 105.614 143.125 105.841C143.326 105.929 143.554 105.913 143.741 105.799C143.929 105.684 144.056 105.483 144.083 105.256L144.147 105.345L144.374 105.666L144.443 105.763Z" fill="#3F3D56"/>
<path d="M133.783 175.599L133.752 175.579L133.301 175.308C133.304 174.612 132.753 173.472 131.537 172.326C130.51 171.366 129.317 170.736 128.494 170.707C128.592 170.596 128.699 170.493 128.815 170.399H128.817C128.868 170.358 128.922 170.316 128.978 170.277C130.088 170.591 131.093 171.177 131.894 171.977C133.23 173.235 133.964 174.668 133.783 175.599Z" fill="#3F3D56"/>
<path d="M341.956 177.597C353.326 210.414 349.333 241.226 349.333 241.226C349.333 241.226 326.907 218.833 315.537 186.016C304.168 153.2 308.161 122.387 308.161 122.387C308.161 122.387 330.587 144.78 341.956 177.597Z" fill="#FFD15C"/>
<path d="M354.524 177.597C343.155 210.414 347.148 241.226 347.148 241.226C347.148 241.226 369.574 218.833 380.944 186.016C392.313 153.2 388.32 122.387 388.32 122.387C388.32 122.387 365.894 144.78 354.524 177.597Z" fill="#FFD15C"/>
<path d="M358.843 177.084C359.569 212.35 346.897 241.226 346.897 241.226C346.897 241.226 333.047 212.926 332.321 177.66C331.595 142.394 344.267 113.518 344.267 113.518C344.267 113.518 358.117 141.819 358.843 177.084Z" fill="#3F3D56"/>
<path d="M344.696 148.993C346.654 148.993 348.24 147.404 348.24 145.445C348.24 143.486 346.654 141.898 344.696 141.898C342.739 141.898 341.152 143.486 341.152 145.445C341.152 147.404 342.739 148.993 344.696 148.993Z" fill="black"/>
<path d="M338.494 177.372C339.962 177.372 341.152 176.181 341.152 174.712C341.152 173.242 339.962 172.051 338.494 172.051C337.026 172.051 335.835 173.242 335.835 174.712C335.835 176.181 337.026 177.372 338.494 177.372Z" fill="black"/>
<path d="M315.456 157.861C316.924 157.861 318.114 156.67 318.114 155.201C318.114 153.731 316.924 152.54 315.456 152.54C313.987 152.54 312.797 153.731 312.797 155.201C312.797 156.67 313.987 157.861 315.456 157.861Z" fill="#3F3D56"/>
<path d="M382.797 140.124C384.265 140.124 385.456 138.933 385.456 137.464C385.456 135.994 384.265 134.803 382.797 134.803C381.329 134.803 380.139 135.994 380.139 137.464C380.139 138.933 381.329 140.124 382.797 140.124Z" fill="#3F3D56"/>
<path d="M326.089 177.372C327.557 177.372 328.747 176.181 328.747 174.712C328.747 173.242 327.557 172.051 326.089 172.051C324.62 172.051 323.43 173.242 323.43 174.712C323.43 176.181 324.62 177.372 326.089 177.372Z" fill="#3F3D56"/>
<path d="M366.848 164.956C368.316 164.956 369.506 163.765 369.506 162.296C369.506 160.826 368.316 159.635 366.848 159.635C365.38 159.635 364.19 160.826 364.19 162.296C364.19 163.765 365.38 164.956 366.848 164.956Z" fill="#3F3D56"/>
<path d="M327.861 205.752C329.329 205.752 330.519 204.561 330.519 203.091C330.519 201.622 329.329 200.431 327.861 200.431C326.393 200.431 325.203 201.622 325.203 203.091C325.203 204.561 326.393 205.752 327.861 205.752Z" fill="#3F3D56"/>
<path d="M366.848 191.562C368.316 191.562 369.506 190.371 369.506 188.901C369.506 187.432 368.316 186.241 366.848 186.241C365.38 186.241 364.19 187.432 364.19 188.901C364.19 190.371 365.38 191.562 366.848 191.562Z" fill="#3F3D56"/>
<path d="M350.899 193.336C352.367 193.336 353.557 192.145 353.557 190.675C353.557 189.206 352.367 188.015 350.899 188.015C349.431 188.015 348.24 189.206 348.24 190.675C348.24 192.145 349.431 193.336 350.899 193.336Z" fill="black"/>
</svg>
