<svg width="284" height="302" viewBox="0 0 284 302" fill="none" xmlns="http://www.w3.org/2000/svg">
<path d="M272.531 232.178L121.222 145.064C119.098 143.857 117.38 140.563 117.38 137.746V21.0282C117.38 18.2048 119.098 16.9078 121.222 18.1324L272.531 105.247C274.655 106.454 276.374 109.748 276.374 112.565V229.283C276.398 232.106 274.679 233.403 272.531 232.178Z" fill="#B1B4C4"/>
<path d="M273.336 233.385L275.012 232.42L274.286 227.467L273.336 233.385Z" fill="#B1B4C4"/>
<path d="M117.108 18.8383L118.759 17.8851L121.131 19.2365C121.131 19.2365 118.602 19.6165 118.542 19.6045C118.481 19.5924 117.108 18.8383 117.108 18.8383Z" fill="#B1B4C4"/>
<path d="M271.17 233.005L119.836 145.866C117.713 144.66 115.988 141.366 115.988 138.542V21.8547C115.988 19.0313 117.713 17.7343 119.836 18.9589L271.17 106.074C273.294 107.28 275.012 110.574 275.012 113.397V230.085C275.012 232.902 273.294 234.212 271.17 233.005Z" fill="#E4E7F2"/>
<path d="M270.904 233.132L119.57 146.017C117.446 144.811 115.722 141.517 115.722 138.693V21.9754C115.722 19.158 117.446 17.861 119.57 19.0796L270.904 106.194C273.021 107.401 274.746 110.695 274.746 113.518V230.236C274.746 233.059 273.021 234.356 270.904 233.132Z" fill="#D6D8E5"/>
<path d="M272.664 226.031L117.634 136.799L117.725 22.458C117.725 21.2876 118.548 20.811 119.54 21.3962L270.873 108.511C271.951 109.223 272.625 110.403 272.689 111.69L272.664 226.031Z" fill="white"/>
<path opacity="0.5" d="M272.616 226.037L117.634 136.805L117.682 22.458C117.682 21.2876 118.505 20.811 119.498 21.3962L270.831 108.511C271.908 109.223 272.581 110.403 272.646 111.69L272.616 226.037Z" fill="url(#paint0_linear)"/>
<path opacity="0.4" d="M156.764 300.953L5.43024 213.839C3.30646 212.632 3.57269 210.484 6.03531 209.073L107.414 150.711C109.835 149.305 113.574 149.148 115.692 150.373L267.031 237.487C269.149 238.694 268.883 240.842 266.426 242.253L165.041 300.615C162.59 302.021 158.881 302.178 156.764 300.953Z" fill="#D6D8E5"/>
<path d="M160.067 298.974L8.72181 211.89C6.59802 210.683 6.86425 208.536 9.32688 207.124L110.706 148.768C113.126 147.356 116.866 147.2 118.989 148.424L270.323 235.539C272.447 236.745 272.18 238.893 269.718 240.305L168.351 298.637C165.9 300.042 162.191 300.199 160.067 298.974Z" fill="#B1B4C4"/>
<path d="M7.29993 209.893V207.046L10.5068 208.385L7.29993 209.893Z" fill="#B1B4C4"/>
<path d="M271.757 237.638V234.857L269.385 235.672L270.958 237.976L271.757 237.638Z" fill="#B1B4C4"/>
<path d="M160.067 296.579L8.72181 209.477C6.59802 208.27 6.86425 206.123 9.32688 204.711L110.706 146.349C113.126 144.937 116.866 144.786 118.989 146.011L270.323 233.126C272.447 234.332 272.18 236.48 269.718 237.892L168.351 296.235C165.9 297.647 162.191 297.804 160.067 296.579Z" fill="#E4E7F2"/>
<path d="M160.067 296.211L8.72181 209.097C6.59802 207.89 6.86425 205.736 9.32688 204.331L110.706 145.969C113.126 144.557 116.866 144.406 118.989 145.625L270.323 232.746C272.447 233.952 272.18 236.1 269.718 237.512L168.351 295.867C165.9 297.279 162.191 297.43 160.067 296.211Z" fill="#D6D8E5"/>
<path d="M107.898 165.654L100.855 161.6C100.25 161.268 100.353 160.689 101.013 160.309L107.741 156.436C108.431 156.053 109.261 156.02 109.98 156.345L117.029 160.399C117.604 160.731 117.531 161.31 116.866 161.69L110.143 165.564C109.452 165.946 108.619 165.98 107.898 165.654Z" fill="#2B303F"/>
<path d="M117.876 171.397L110.827 167.337C110.252 167.011 110.325 166.432 110.99 166.046L117.713 162.179C118.404 161.796 119.237 161.763 119.957 162.089L127 166.143C127.605 166.475 127.503 167.054 126.843 167.434L120.115 171.301C119.427 171.688 118.595 171.724 117.876 171.397Z" fill="#2B303F"/>
<path d="M127.962 177.207L120.919 173.147C120.314 172.815 120.417 172.236 121.077 171.856L127.805 167.989C128.493 167.601 129.325 167.565 130.044 167.892L137.093 171.952C137.698 172.278 137.595 172.857 136.93 173.243L130.207 177.111C129.515 177.491 128.685 177.527 127.962 177.207Z" fill="#2B303F"/>
<path d="M137.825 182.878L130.776 178.824C130.201 178.492 130.274 177.913 130.939 177.533L137.662 173.66C138.353 173.277 139.186 173.243 139.907 173.569L146.956 177.623C147.53 177.955 147.458 178.534 146.792 178.914L140.07 182.787C139.378 183.17 138.546 183.204 137.825 182.878Z" fill="#2B303F"/>
<path d="M147.803 188.621L140.754 184.567C140.149 184.235 140.251 183.656 140.917 183.276L147.639 179.403C148.331 179.02 149.164 178.987 149.884 179.312L156.927 183.367C157.502 183.698 157.429 184.278 156.764 184.658L150.041 188.531C149.352 188.913 148.521 188.947 147.803 188.621Z" fill="#2B303F"/>
<path d="M157.774 194.395L150.731 190.341C150.156 190.009 150.223 189.43 150.888 189.05L157.611 185.176C158.302 184.794 159.135 184.76 159.856 185.086L166.905 189.14C167.479 189.472 167.407 190.051 166.741 190.431L160.019 194.304C159.327 194.687 158.495 194.72 157.774 194.395Z" fill="#2B303F"/>
<path d="M167.752 200.108L160.703 196.054C160.128 195.722 160.2 195.143 160.866 194.763L167.588 190.89C168.28 190.507 169.113 190.473 169.833 190.799L176.876 194.853C177.451 195.185 177.378 195.764 176.719 196.144L169.99 200.011C169.303 200.399 168.47 200.435 167.752 200.108Z" fill="#2B303F"/>
<path d="M177.723 205.857L170.68 201.797C170.105 201.465 170.178 200.892 170.838 200.506L177.566 196.639C178.254 196.251 179.086 196.216 179.805 196.542L186.854 200.602C187.459 200.934 187.356 201.507 186.69 201.894L179.956 205.755C179.27 206.14 178.442 206.178 177.723 205.857Z" fill="#2B303F"/>
<path d="M187.701 211.588L180.652 207.534C180.077 207.202 180.15 206.623 180.815 206.243L187.537 202.376C188.227 201.989 189.061 201.953 189.782 202.28L196.825 206.34C197.4 206.665 197.327 207.245 196.668 207.631L189.946 211.498C189.254 211.881 188.421 211.914 187.701 211.588Z" fill="#2B303F"/>
<path d="M197.672 217.32L190.629 213.265C190.055 212.934 190.127 212.354 190.787 211.974L197.503 208.113C198.192 207.731 199.023 207.697 199.742 208.023L206.791 212.077C207.365 212.409 207.293 212.988 206.627 213.368L199.923 217.241C199.228 217.622 198.393 217.651 197.672 217.32Z" fill="#2B303F"/>
<path d="M207.65 223.075L200.601 219.021C200.026 218.689 200.099 218.11 200.764 217.73L207.486 213.857C208.178 213.474 209.011 213.44 209.731 213.766L216.78 217.82C217.355 218.152 217.283 218.731 216.617 219.111L209.895 222.984C209.203 223.367 208.37 223.401 207.65 223.075Z" fill="#2B303F"/>
<path d="M217.627 228.818L210.578 224.764C210.004 224.432 210.076 223.853 210.742 223.473L217.47 219.6C218.162 219.217 218.994 219.184 219.715 219.509L226.758 223.564C227.363 223.895 227.26 224.475 226.595 224.855L219.89 228.728C219.194 229.118 218.353 229.152 217.627 228.818Z" fill="#2B303F"/>
<path d="M227.599 234.561L220.556 230.501C219.951 230.17 220.048 229.596 220.713 229.21L227.436 225.343C228.126 224.959 228.959 224.923 229.68 225.247L236.729 229.307C237.304 229.639 237.232 230.212 236.566 230.598L229.844 234.465C229.154 234.853 228.32 234.888 227.599 234.561Z" fill="#2B303F"/>
<path d="M242.381 243.068L230.527 236.245C229.953 235.913 230.025 235.334 230.691 234.954L237.437 231.087C238.127 230.699 238.961 230.663 239.682 230.99L251.505 237.831C252.08 238.163 252.007 238.742 251.348 239.122L244.619 242.995C243.927 243.372 243.096 243.399 242.381 243.068Z" fill="#2B303F"/>
<path d="M113.029 179.735L105.98 175.693C105.375 175.361 105.478 174.782 106.144 174.402L112.866 170.529C113.558 170.146 114.39 170.112 115.111 170.438L122.154 174.486C122.729 174.818 122.656 175.397 121.996 175.777L115.268 179.65C114.578 180.031 113.747 180.062 113.029 179.735Z" fill="#2B303F"/>
<path d="M123.019 185.49L115.976 181.436C115.401 181.104 115.474 180.525 116.133 180.145L122.862 176.296C123.551 175.913 124.382 175.88 125.1 176.206L132.156 180.236C132.73 180.567 132.658 181.146 131.992 181.527L125.27 185.4C124.577 185.784 123.741 185.818 123.019 185.49Z" fill="#2B303F"/>
<path d="M133.015 191.239L125.966 187.185C125.361 186.854 125.464 186.274 126.129 185.894L132.851 182.021C133.543 181.639 134.376 181.605 135.096 181.931L142.139 185.985C142.714 186.317 142.641 186.896 141.982 187.276L135.254 191.149C134.564 191.532 133.733 191.565 133.015 191.239Z" fill="#2B303F"/>
<path d="M143.004 196.995L135.955 192.935C135.381 192.609 135.453 192.03 136.119 191.644L142.841 187.758C143.532 187.374 144.364 187.338 145.086 187.662L152.123 191.74C152.698 192.072 152.625 192.645 151.959 193.031L145.237 196.898C144.55 197.282 143.722 197.318 143.004 196.995Z" fill="#2B303F"/>
<path d="M152.915 202.702L145.872 198.618C145.298 198.286 145.37 197.713 146.03 197.327L152.758 193.46C153.446 193.072 154.278 193.036 154.997 193.363L162.046 197.423C162.651 197.749 162.548 198.328 161.883 198.714L155.148 202.605C154.461 202.986 153.633 203.022 152.915 202.702Z" fill="#2B303F"/>
<path d="M162.911 208.451L155.862 204.397C155.287 204.065 155.36 203.486 156.026 203.106L162.748 199.221C163.44 198.838 164.272 198.805 164.993 199.13L172.036 203.185C172.61 203.516 172.538 204.095 171.878 204.476L165.15 208.349C164.462 208.735 163.631 208.773 162.911 208.451Z" fill="#2B303F"/>
<path d="M172.901 214.201L165.852 210.146C165.277 209.815 165.35 209.236 166.015 208.855L172.737 204.988C173.427 204.601 174.261 204.565 174.982 204.892L182.031 208.952C182.606 209.278 182.533 209.857 181.868 210.243L175.146 214.11C174.454 214.493 173.621 214.526 172.901 214.201Z" fill="#2B303F"/>
<path d="M182.89 219.956L175.848 215.902C175.273 215.57 175.345 214.991 176.011 214.611L182.733 210.738C183.423 210.355 184.254 210.321 184.972 210.647L192.021 214.701C192.596 215.033 192.523 215.612 191.858 215.992L185.135 219.865C184.444 220.248 183.611 220.282 182.89 219.956Z" fill="#2B303F"/>
<path d="M192.886 225.705L185.837 221.651C185.232 221.319 185.335 220.74 186.001 220.36L192.723 216.487C193.415 216.104 194.247 216.071 194.968 216.397L202.011 220.451C202.585 220.782 202.519 221.362 201.853 221.742L195.131 225.615C194.439 225.997 193.607 226.031 192.886 225.705Z" fill="#2B303F"/>
<path d="M202.876 231.461L195.833 227.4C195.258 227.075 195.331 226.496 195.99 226.109L202.719 222.242C203.408 221.861 204.237 221.825 204.957 222.146L212.025 226.206C212.599 226.538 212.527 227.117 211.861 227.497L205.139 231.364C204.444 231.758 203.602 231.794 202.876 231.461Z" fill="#2B303F"/>
<path d="M212.872 237.228L205.823 233.174C205.248 232.842 205.32 232.263 205.986 231.883L212.708 228.01C213.4 227.627 214.233 227.593 214.953 227.919L221.996 231.973C222.571 232.305 222.498 232.884 221.839 233.264L215.11 237.138C214.421 237.52 213.59 237.554 212.872 237.228Z" fill="#2B303F"/>
<path d="M222.861 242.965L215.818 238.905C215.243 238.573 215.31 238 215.976 237.614L222.698 233.747C223.389 233.362 224.221 233.327 224.943 233.651L231.992 237.711C232.567 238.042 232.494 238.616 231.828 239.002L225.106 242.869C224.416 243.256 223.582 243.292 222.861 242.965Z" fill="#2B303F"/>
<path d="M103.034 173.985L91.1864 167.162C90.6116 166.831 90.6842 166.257 91.3438 165.871L98.0721 162.004C98.7599 161.617 99.5921 161.581 100.311 161.908L112.188 168.731C112.763 169.063 112.691 169.642 112.025 170.022L105.278 173.883C104.589 174.27 103.756 174.308 103.034 173.985Z" fill="#2B303F"/>
<path d="M241.897 243.436L234.854 239.382C234.196 239.047 233.418 239.047 232.76 239.382L225.657 243.472C225.052 243.804 225.052 244.341 225.657 244.679L226.219 245.004C226.752 245.306 226.746 245.807 226.219 246.114L218.68 250.434C218.075 250.772 218.075 251.309 218.68 251.641L223.164 254.223C223.82 254.555 224.595 254.555 225.251 254.223L232.282 250.181L233.734 249.342L234.781 248.739L235.834 248.135L241.885 244.654C242.471 244.305 242.471 243.768 241.897 243.436Z" fill="#2B303F"/>
<path d="M69.2648 187.939L62.2218 183.885C61.6168 183.554 61.7196 182.974 62.3792 182.594L69.1075 178.709C69.7971 178.327 70.6279 178.293 71.3463 178.619L78.3953 182.673C78.9701 183.005 78.8975 183.584 78.2319 183.964L71.5096 187.837C70.8199 188.224 69.9872 188.262 69.2648 187.939Z" fill="#2B303F"/>
<path d="M79.2122 193.665L72.1692 189.611C71.5641 189.279 71.667 188.7 72.3265 188.32L79.0549 184.446C79.7444 184.064 80.5752 184.03 81.2936 184.356L88.3426 188.41C88.9175 188.742 88.8448 189.321 88.1793 189.701L81.457 193.574C80.7652 193.957 79.9326 193.99 79.2122 193.665Z" fill="#2B303F"/>
<path d="M89.1595 199.39L82.1165 195.336C81.5114 195.004 81.6083 194.425 82.2738 194.045L88.9961 190.172C89.6879 189.789 90.5205 189.755 91.2409 190.081L98.2718 194.135C98.8466 194.467 98.774 195.046 98.1084 195.426L91.3861 199.299C90.6993 199.676 89.8749 199.71 89.1595 199.39Z" fill="#2B303F"/>
<path d="M173.869 248.154L166.82 244.093C166.215 243.768 166.318 243.188 166.983 242.802L173.706 238.935C174.396 238.551 175.229 238.515 175.95 238.839L182.981 242.899C183.586 243.231 183.483 243.804 182.818 244.19L176.108 248.087C175.415 248.465 174.583 248.49 173.869 248.154Z" fill="#2B303F"/>
<path d="M183.81 253.879L176.767 249.825C176.162 249.493 176.265 248.914 176.925 248.534L183.653 244.66C184.342 244.278 185.173 244.244 185.892 244.57L192.941 248.624C193.546 248.956 193.443 249.535 192.777 249.915L186.055 253.788C185.363 254.171 184.531 254.205 183.81 253.879Z" fill="#2B303F"/>
<path d="M193.758 259.604L186.715 255.55C186.14 255.218 186.212 254.639 186.872 254.259L193.6 250.386C194.29 250.003 195.121 249.969 195.839 250.295L202.888 254.349C203.493 254.681 203.39 255.26 202.725 255.64L196.002 259.513C195.311 259.896 194.478 259.93 193.758 259.604Z" fill="#2B303F"/>
<path d="M203.705 265.329L196.662 261.275C196.087 260.943 196.16 260.364 196.819 259.984L203.554 256.111C204.243 255.728 205.074 255.695 205.792 256.02L212.841 260.074C213.446 260.406 213.344 260.985 212.678 261.366L205.974 265.239C205.276 265.629 204.432 265.663 203.705 265.329Z" fill="#2B303F"/>
<path d="M101.666 206.593L92.0578 201.061C91.483 200.729 91.5556 200.15 92.2211 199.77L98.9434 195.897C99.6352 195.514 100.468 195.481 101.188 195.806L110.797 201.338C111.402 201.67 111.299 202.243 110.633 202.63L103.911 206.497C103.221 206.884 102.387 206.92 101.666 206.593Z" fill="#2B303F"/>
<path d="M163.922 242.428L154.313 236.896C153.708 236.564 153.811 235.985 154.47 235.605L161.199 231.732C161.888 231.349 162.719 231.316 163.438 231.642L173.046 237.174C173.621 237.506 173.548 238.079 172.889 238.465L166.16 242.332C165.473 242.719 164.64 242.755 163.922 242.428Z" fill="#2B303F"/>
<path d="M151.409 235.225L104.571 208.27C103.996 207.938 104.068 207.359 104.728 206.979L111.456 203.106C112.146 202.723 112.977 202.69 113.695 203.016L160.539 229.989C161.114 230.32 161.041 230.9 160.376 231.28L153.654 235.153C152.959 235.53 152.126 235.556 151.409 235.225Z" fill="#2B303F"/>
<path d="M106.071 186.866L99.0282 182.812C98.4534 182.48 98.526 181.901 99.1915 181.521L105.914 177.647C106.603 177.265 107.434 177.231 108.153 177.557L115.214 181.611C115.819 181.943 115.716 182.522 115.05 182.902L108.328 186.775C107.633 187.162 106.795 187.196 106.071 186.866Z" fill="#2B303F"/>
<path d="M116.037 192.585L108.994 188.525C108.419 188.193 108.491 187.62 109.151 187.234L115.879 183.367C116.568 182.982 117.399 182.946 118.118 183.27L125.167 187.33C125.772 187.662 125.669 188.235 125.004 188.621L118.281 192.488C117.591 192.876 116.757 192.912 116.037 192.585Z" fill="#2B303F"/>
<path d="M126.002 198.334L118.953 194.28C118.348 193.948 118.451 193.369 119.116 192.989L125.839 189.116C126.53 188.733 127.363 188.7 128.083 189.025L135.126 193.08C135.732 193.411 135.635 193.99 134.969 194.371L128.247 198.244C127.555 198.626 126.722 198.66 126.002 198.334Z" fill="#2B303F"/>
<path d="M135.967 204.047L128.918 199.993C128.313 199.661 128.416 199.082 129.082 198.702L135.786 194.853C136.478 194.47 137.31 194.437 138.031 194.763L145.074 198.817C145.679 199.149 145.576 199.728 144.916 200.108L138.206 203.981C137.513 204.356 136.682 204.38 135.967 204.047Z" fill="#2B303F"/>
<path d="M145.927 209.809L138.884 205.755C138.279 205.423 138.382 204.844 139.041 204.464L145.77 200.59C146.459 200.208 147.29 200.174 148.008 200.5L155.057 204.554C155.662 204.886 155.56 205.465 154.894 205.845L148.172 209.718C147.48 210.101 146.647 210.134 145.927 209.809Z" fill="#2B303F"/>
<path d="M155.892 215.546L148.849 211.486C148.244 211.154 148.341 210.581 149.007 210.195L155.753 206.328C156.443 205.94 157.277 205.904 157.998 206.231L165.047 210.291C165.622 210.623 165.549 211.196 164.884 211.582L158.161 215.449C157.465 215.845 156.62 215.881 155.892 215.546Z" fill="#2B303F"/>
<path d="M165.858 221.277L158.809 217.223C158.234 216.891 158.307 216.312 158.972 215.932L165.694 212.059C166.386 211.676 167.219 211.643 167.939 211.968L174.982 216.022C175.587 216.354 175.484 216.933 174.825 217.314L168.097 221.187C167.407 221.569 166.576 221.603 165.858 221.277Z" fill="#2B303F"/>
<path d="M175.823 227.014L168.774 222.96C168.199 222.628 168.272 222.049 168.938 221.669L175.66 217.796C176.352 217.413 177.184 217.38 177.905 217.706L184.948 221.76C185.523 222.092 185.45 222.671 184.784 223.051L178.062 226.924C177.372 227.306 176.542 227.34 175.823 227.014Z" fill="#2B303F"/>
<path d="M185.783 232.752L178.746 228.698C178.171 228.366 178.244 227.787 178.903 227.406L185.631 223.533C186.321 223.151 187.152 223.117 187.87 223.443L194.919 227.497C195.494 227.829 195.421 228.408 194.756 228.788L188.034 232.661C187.34 233.046 186.505 233.079 185.783 232.752Z" fill="#2B303F"/>
<path d="M195.748 238.489L188.699 234.429C188.124 234.097 188.197 233.524 188.863 233.138L195.585 229.271C196.275 228.883 197.109 228.847 197.83 229.174L204.879 233.234C205.453 233.56 205.381 234.139 204.715 234.525L197.993 238.392C197.302 238.777 196.47 238.813 195.748 238.489Z" fill="#2B303F"/>
<path d="M205.714 244.22L198.665 240.166C198.09 239.834 198.162 239.255 198.828 238.875L205.55 235.002C206.242 234.619 207.075 234.586 207.795 234.911L214.838 238.965C215.443 239.297 215.34 239.876 214.681 240.257L207.952 244.13C207.263 244.512 206.432 244.546 205.714 244.22Z" fill="#2B303F"/>
<path d="M215.655 249.957L208.612 245.903C208.037 245.571 208.11 244.992 208.775 244.612L215.498 240.739C216.187 240.356 217.018 240.323 217.736 240.649L224.785 244.703C225.36 245.035 225.288 245.614 224.622 245.994L217.918 249.897C217.216 250.276 216.376 250.299 215.655 249.957Z" fill="#2B303F"/>
<path d="M96.1117 181.122L81.5356 172.737C80.9306 172.405 81.0334 171.826 81.699 171.446L88.4213 167.573C89.113 167.19 89.9457 167.156 90.6661 167.482L105.236 175.868C105.841 176.2 105.738 176.779 105.079 177.159L98.3505 181.032C97.6609 181.414 96.8301 181.448 96.1117 181.122Z" fill="#2B303F"/>
<path d="M91.4588 189.568L84.4158 185.526C83.841 185.195 83.9075 184.621 84.5731 184.235L91.2954 180.368C91.9853 179.981 92.8194 179.945 93.5402 180.272L100.589 184.332C101.164 184.658 101.091 185.237 100.426 185.623L93.7036 189.49C93.0099 189.869 92.1773 189.898 91.4588 189.568Z" fill="#2B303F"/>
<path d="M101.424 195.318L94.3752 191.264C93.8003 190.932 93.8729 190.353 94.5385 189.973L101.261 186.099C101.953 185.717 102.785 185.683 103.506 186.009L110.549 190.063C111.154 190.395 111.051 190.974 110.391 191.354L103.663 195.227C102.973 195.61 102.143 195.643 101.424 195.318Z" fill="#2B303F"/>
<path d="M111.384 201.031L104.323 196.995C103.717 196.663 103.82 196.09 104.486 195.704L111.208 191.837C111.899 191.452 112.732 191.416 113.453 191.74L120.502 195.8C121.107 196.132 121.004 196.705 120.339 197.091L113.616 200.958C112.926 201.334 112.097 201.361 111.384 201.031Z" fill="#2B303F"/>
<path d="M121.343 206.786L114.3 202.732C113.695 202.4 113.798 201.821 114.463 201.441L121.186 197.568C121.875 197.185 122.706 197.152 123.424 197.477L130.473 201.532C131.048 201.863 130.976 202.442 130.31 202.823L123.588 206.696C122.896 207.078 122.063 207.112 121.343 206.786Z" fill="#2B303F"/>
<path d="M131.308 212.523L124.29 208.469C123.715 208.138 123.787 207.558 124.453 207.178L131.175 203.305C131.867 202.922 132.7 202.889 133.42 203.215L140.463 207.269C141.038 207.601 140.971 208.18 140.306 208.56L133.584 212.427C132.886 212.825 132.038 212.861 131.308 212.523Z" fill="#2B303F"/>
<path d="M141.268 218.255L134.225 214.201C133.65 213.869 133.723 213.29 134.382 212.91L141.111 209.036C141.8 208.654 142.631 208.62 143.349 208.946L150.398 213C150.973 213.332 150.901 213.911 150.235 214.291L143.513 218.164C142.821 218.547 141.988 218.58 141.268 218.255Z" fill="#2B303F"/>
<path d="M151.233 223.992L144.184 219.938C143.609 219.606 143.682 219.027 144.348 218.647L151.07 214.774C151.762 214.391 152.594 214.357 153.315 214.683L160.358 218.737C160.933 219.069 160.86 219.648 160.2 220.028L153.478 223.901C152.786 224.284 151.954 224.318 151.233 223.992Z" fill="#2B303F"/>
<path d="M161.199 229.729L154.156 225.669C153.581 225.337 153.654 224.764 154.313 224.378L161.041 220.511C161.729 220.123 162.561 220.088 163.28 220.414L170.329 224.475C170.904 224.8 170.831 225.379 170.166 225.766L163.444 229.633C162.753 230.017 161.92 230.053 161.199 229.729Z" fill="#2B303F"/>
<path d="M171.158 235.46L164.109 231.406C163.534 231.074 163.607 230.495 164.273 230.115L170.995 226.242C171.687 225.859 172.519 225.826 173.24 226.152L180.283 230.206C180.857 230.538 180.785 231.117 180.125 231.497L173.397 235.37C172.707 235.753 171.877 235.786 171.158 235.46Z" fill="#2B303F"/>
<path d="M181.118 241.198L174.075 237.138C173.5 236.812 173.572 236.233 174.232 235.846L180.96 231.979C181.649 231.595 182.48 231.559 183.199 231.883L190.242 235.943C190.817 236.275 190.744 236.848 190.079 237.234L183.356 241.101C182.668 241.487 181.837 241.522 181.118 241.198Z" fill="#2B303F"/>
<path d="M191.083 246.929L184.034 242.875C183.459 242.543 183.532 241.964 184.197 241.584L190.92 237.711C191.611 237.328 192.444 237.294 193.165 237.62L200.208 241.674C200.782 242.006 200.71 242.585 200.05 242.965L193.322 246.838C192.632 247.221 191.802 247.255 191.083 246.929Z" fill="#2B303F"/>
<path d="M213.374 259.767L194.012 248.612C193.437 248.28 193.503 247.701 194.169 247.321L200.891 243.448C201.583 243.065 202.416 243.032 203.136 243.357L222.498 254.512C223.073 254.838 223 255.417 222.335 255.803L215.613 259.67C214.923 260.053 214.093 260.089 213.374 259.767Z" fill="#2B303F"/>
<path d="M81.4993 183.849L71.8909 178.317C71.2858 177.985 71.3887 177.406 72.0482 177.026L78.7765 173.159C79.4643 172.772 80.2965 172.736 81.0153 173.062L90.6238 178.595C91.1986 178.926 91.126 179.506 90.4664 179.886L83.7502 183.759C83.0574 184.145 82.2211 184.179 81.4993 183.849Z" fill="#2B303F"/>
<path d="M252.389 237.306L110.9 155.863C110.295 155.537 110.397 154.958 111.063 154.572L114.427 152.641C115.116 152.257 115.947 152.221 116.666 152.545L258.155 233.988C258.73 234.32 258.657 234.893 257.992 235.279L254.633 237.228C253.94 237.607 253.107 237.636 252.389 237.306Z" fill="#2B303F"/>
<path d="M164.738 246.567C164.536 247.006 164.191 247.363 163.758 247.58L124.828 269.992C123.499 270.729 121.899 270.794 120.514 270.167L53.9567 231.865C53.6722 231.718 53.443 231.483 53.3032 231.195C53.0612 230.592 53.4 229.922 54.2834 229.415L93.2195 206.997C94.5485 206.261 96.149 206.196 97.5336 206.822L164.091 245.125C164.649 245.366 164.93 245.992 164.738 246.567Z" fill="#B1B4C4"/>
<path d="M164.738 246.567C164.536 247.006 164.191 247.363 163.758 247.58L124.828 269.992C123.499 270.729 121.899 270.794 120.514 270.167L53.9566 231.865C53.6722 231.718 53.443 231.483 53.3032 231.195C53.5094 230.761 53.8541 230.406 54.2834 230.188L93.2195 207.776C94.5478 207.038 96.1478 206.971 97.5336 207.595L164.091 245.903C164.374 246.048 164.601 246.281 164.738 246.567Z" fill="#C3C6D1"/>
<path d="M263.159 231.129L121.67 149.685C121.038 149.219 120.664 148.484 120.659 147.7V146.041C120.659 145.275 121.125 144.925 121.7 145.257L263.189 226.701C263.832 227.158 264.218 227.892 264.23 228.679V230.338C264.199 231.111 263.734 231.461 263.159 231.129Z" fill="#2B303F"/>
<path d="M143.047 141.643L129.07 133.614C127.321 132.606 125.899 129.897 125.899 127.581V112.637C125.899 110.309 127.321 109.241 129.07 110.224L143.047 118.278C144.801 119.285 146.217 121.994 146.217 124.311V139.254C146.193 141.583 144.777 142.651 143.047 141.643Z" fill="#E9EAF2"/>
<path d="M142.992 107.419L129.04 99.3891C127.291 98.3816 125.869 94.2612 125.869 92.2462V74.7991C125.869 72.4705 127.291 71.4026 129.04 72.386L142.992 80.4157C144.747 81.4232 146.163 84.132 146.163 86.4486V103.896C146.163 105.947 144.747 108.426 142.992 107.419Z" fill="#E9EAF2"/>
<path d="M136.095 95.7634C133.257 94.1284 130.945 90.1347 130.945 86.8649C130.945 83.5951 133.257 82.2618 136.095 83.8967C138.932 85.5316 141.25 89.5254 141.25 92.7952C141.25 96.065 138.938 97.3983 136.095 95.7634ZM136.095 85.417C133.983 84.2104 132.264 85.1938 132.264 87.625C132.405 90.3201 133.828 92.7863 136.095 94.2612C138.212 95.4677 139.931 94.4904 139.931 92.0592C139.791 89.3608 138.365 86.8918 136.095 85.417Z" fill="#8C50FF"/>
<path d="M137.51 93.3442L135.175 89.64V86.5572L136.494 87.3173V89.7124L138.382 92.6987L137.51 93.3442Z" fill="#8C50FF"/>
<path d="M142.974 70.5158L129.021 62.4861C127.273 61.4725 125.851 56.9358 125.851 54.9148V38.8553C125.851 36.8404 127.273 36.0199 129.021 37.0455L142.974 45.0813C144.847 46.2957 146.025 48.329 146.145 50.5531V66.6186C146.145 68.6155 144.729 71.5233 142.974 70.5158Z" fill="#E9EAF2"/>
<path d="M135.998 51.2649C135.157 50.7823 134.479 51.1744 134.479 52.1457C134.536 53.2122 135.1 54.1874 135.998 54.77C136.839 55.2527 137.523 54.8605 137.523 53.8953C137.462 52.827 136.896 51.8509 135.998 51.2649ZM140.058 51.8682L138.848 51.1684C138.651 51.0351 138.51 50.836 138.448 50.6074L138.134 49.3344C138.068 49.1063 137.924 48.908 137.728 48.7734L134.279 46.7886C134.11 46.692 133.934 46.7343 133.88 46.8911L133.565 47.796C133.534 47.8701 133.469 47.9252 133.391 47.9453C133.313 47.9654 133.23 47.9481 133.166 47.8986L131.956 47.1988C131.399 46.873 130.945 47.1385 130.945 47.8021V53.0627C130.984 53.7729 131.359 54.4223 131.956 54.8123L140.076 59.4877C140.633 59.8075 141.092 59.5481 141.092 58.8845V53.6057C141.048 52.8895 140.664 52.2374 140.058 51.8501V51.8682ZM135.998 55.9585C134.503 54.9833 133.561 53.3574 133.463 51.5786C133.463 49.9618 134.6 49.3103 135.998 50.1187C137.497 51.0905 138.439 52.7184 138.533 54.4986C138.533 56.0912 137.402 56.7488 135.998 55.9404V55.9585ZM139.701 53.6479C139.494 53.514 139.364 53.2899 139.35 53.0446C139.35 52.8154 139.507 52.7249 139.701 52.8395C139.91 52.9721 140.042 53.1964 140.058 53.4428C140.058 53.654 139.9 53.7444 139.701 53.6298V53.6479Z" fill="#8C50FF"/>
<path d="M140.403 127.038C140.403 129.759 136.125 133.294 136.125 133.294C136.125 133.294 131.841 124.848 131.841 122.109C131.841 119.37 133.759 118.284 136.125 119.641C138.651 121.286 140.24 124.034 140.403 127.038Z" fill="#8C50FF"/>
<path d="M138.099 127.807C139.192 127.176 139.194 125.134 138.104 123.245C137.014 121.357 135.244 120.338 134.15 120.969C133.057 121.6 133.055 123.642 134.145 125.531C135.236 127.419 137.006 128.439 138.099 127.807Z" fill="#E9EAF2"/>
<path d="M241.751 163.627L157.278 114.996C155.85 114.182 154.7 111.98 154.7 110.091V53.485C154.7 51.5967 155.85 50.728 157.278 51.5485L241.751 100.173C243.173 100.994 244.323 103.19 244.323 105.084V161.684C244.323 163.579 243.173 164.448 241.751 163.627Z" fill="#E9EAF2"/>
<path d="M231.992 122.477L166.517 84.7896C164.932 83.8726 163.643 81.4232 163.643 79.3178V75.0525C163.643 72.941 164.932 71.9758 166.517 72.8867L231.992 110.574C233.577 111.485 234.86 113.934 234.86 116.046V120.311C234.86 122.423 233.577 123.388 231.992 122.477Z" fill="white"/>
<path d="M196.384 121.156L166.517 103.962C164.932 103.051 163.643 100.602 163.643 98.4902V94.2491C163.643 92.1376 164.932 91.1723 166.517 92.0833L196.384 109.277C197.969 110.188 199.252 112.637 199.252 114.749V118.984C199.252 121.095 197.969 122.067 196.384 121.156Z" fill="#8C50FF"/>
<path d="M259.135 176.079C259.135 176.079 227.29 183.077 201.545 154.566C175.799 126.054 154.797 129.71 154.797 129.71V147.507L259.135 207.564V176.079Z" fill="url(#paint1_linear)"/>
<path d="M259.135 176.079C259.135 176.079 227.29 183.077 201.545 154.566C175.799 126.054 154.797 129.71 154.797 129.71" stroke="#CCCEDD" stroke-width="1.06"/>
<path d="M155.137 27.7162C154.21 29.377 153.083 30.9176 151.78 32.3034C151.419 32.7259 148.628 31.6576 149.213 31.3558C149.798 31.054 151.624 28.5069 152.54 26.8048C153.306 24.7727 153.958 22.6992 154.493 20.5939C155.065 18.5116 155.559 15.4574 155.981 14.0209C156.202 12.937 157.037 12.0838 158.115 11.842C159.121 11.6066 159.772 11.8842 159.585 13.1035C159.242 15.2281 157.596 23.5213 155.137 27.7162Z" fill="#FFCEA9"/>
<path d="M156.735 60.2191C155.873 60.9253 154.595 60.2794 154.529 60.3458C153.513 61.2883 152.449 62.1768 151.341 63.0076C150.798 63.4301 149.96 63.9975 150.135 64.8184C150.406 66.273 152.739 65.8264 153.619 65.3797C154.499 64.9331 155.222 64.1726 156.029 63.6776C156.632 63.3034 157.235 63.1163 157.301 62.3618C157.355 61.9091 156.891 60.201 156.735 60.2191Z" fill="#38226D"/>
<path d="M157.289 62.06C157.175 62.7783 156.596 62.9775 156.005 63.3456C155.162 63.8708 154.414 64.6313 153.534 65.0779C152.654 65.5246 150.696 65.8988 150.123 64.8546C150.43 66.2609 152.727 65.8203 153.595 65.3797C154.462 64.9391 155.198 64.1725 156.005 63.6776C156.608 63.3034 157.211 63.1163 157.277 62.3618C157.289 62.2617 157.293 62.1608 157.289 62.06Z" fill="#9C73FF"/>
<path d="M147.959 55.155C147.098 55.8612 145.585 55.0947 145.519 55.155C144.621 56.0706 143.669 56.9313 142.668 57.7323C142.125 58.1609 141.288 58.7282 141.462 59.5431C141.734 61.0037 144.066 60.5571 144.952 60.1104C145.838 59.6638 146.549 58.9033 147.363 58.4023C147.965 58.0341 148.568 57.841 148.634 57.0925C148.683 56.6398 148.116 55.1369 147.959 55.155Z" fill="#38226D"/>
<path d="M148.604 56.8933C148.49 57.6116 147.911 57.8108 147.321 58.179C146.477 58.7041 145.729 59.4646 144.85 59.9113C143.97 60.3579 142.005 60.7321 141.438 59.6879C141.746 61.0943 144.036 60.6537 144.91 60.2131C145.784 59.7724 146.507 59.0059 147.321 58.5049C147.923 58.1367 148.526 57.9496 148.592 57.1951C148.604 57.095 148.608 56.9941 148.604 56.8933Z" fill="#9C73FF"/>
<path d="M168.282 32.4483C169.24 38.4479 166.583 40.6872 163.123 41.9607C160.64 42.8782 157.096 44.2905 157.096 44.2905C157.096 44.2905 157.144 45.6064 157.169 48.5579C157.169 51.1593 156.855 60.6295 156.855 60.6295C156.023 61.0582 155.035 61.0582 154.203 60.6295C154.203 60.6295 152.811 53.3564 152.516 50.0729C152.112 45.6245 151.431 42.7092 151.66 41.7495C151.859 40.9045 156.717 38.5143 158.259 37.2347L148.08 40.6509C148.283 41.7559 148.381 42.8774 148.375 44.0008C148.285 47.5318 148.086 55.1792 148.086 55.1792C148.086 55.1792 146.694 56.1872 145.5 55.1792C145.5 55.1792 142.939 40.0474 143.252 38.0435C143.548 36.1422 152.516 32.2551 154.101 30.9152C154.658 30.4618 155.381 30.2666 156.09 30.378L168.282 32.4483Z" fill="#8C50FF"/>
<path d="M143.897 34.9471L150.738 30.9936C150.858 30.921 151.009 30.921 151.13 30.9936L163.123 37.9288L156.09 41.9969L143.897 34.9471Z" fill="#F4F4F4"/>
<path d="M156.409 40.5423L156.934 40.8441C156.976 40.8441 156.97 40.9105 156.934 40.9407L156.433 41.2304C156.382 41.2544 156.322 41.2544 156.271 41.2304L155.746 40.9286C155.704 40.9286 155.71 40.8622 155.746 40.832L156.246 40.5423C156.298 40.5183 156.358 40.5183 156.409 40.5423Z" fill="#3A2C6D"/>
<path d="M155.674 40.15L156.192 40.4457C156.234 40.4457 156.228 40.5182 156.192 40.5423L155.698 40.832C155.645 40.8589 155.582 40.8589 155.529 40.832L155.011 40.5302C154.969 40.5302 154.975 40.4638 155.011 40.4337L155.505 40.15C155.557 40.1198 155.622 40.1198 155.674 40.15Z" fill="#3A2C6D"/>
<path d="M154.927 39.6852L155.445 39.987C155.487 39.987 155.487 40.0534 155.445 40.0836L154.951 40.3673C154.898 40.3942 154.835 40.3942 154.782 40.3673L154.264 40.0655C154.221 40.0655 154.227 39.9991 154.264 39.9689L154.758 39.6792C154.812 39.6542 154.874 39.6564 154.927 39.6852Z" fill="#3A2C6D"/>
<path d="M154.197 39.2627L154.716 39.5645C154.758 39.5645 154.758 39.6309 154.716 39.6611L154.221 39.9508C154.168 39.9751 154.106 39.9751 154.053 39.9508L153.534 39.649C153.492 39.649 153.498 39.5826 153.534 39.5524L154.029 39.2627C154.082 39.2384 154.144 39.2384 154.197 39.2627Z" fill="#3A2C6D"/>
<path d="M153.456 38.8342L153.98 39.136C154.023 39.136 154.017 39.2084 153.98 39.2325L153.48 39.5223C153.429 39.5491 153.368 39.5491 153.317 39.5223L152.793 39.2205C152.751 39.2205 152.757 39.1541 152.793 39.1239L153.293 38.8402C153.343 38.8115 153.404 38.8092 153.456 38.8342Z" fill="#3A2C6D"/>
<path d="M152.721 38.4117L153.245 38.7135C153.287 38.7135 153.281 38.7798 153.245 38.81L152.745 39.0937C152.694 39.1205 152.633 39.1205 152.582 39.0937L152.058 38.7919C152.016 38.7919 152.022 38.7255 152.058 38.7014L152.558 38.4117C152.609 38.3848 152.67 38.3848 152.721 38.4117Z" fill="#3A2C6D"/>
<path d="M152.01 37.9831L152.528 38.2849C152.57 38.2849 152.564 38.3513 152.528 38.3815L152.034 38.6712C151.98 38.6955 151.919 38.6955 151.865 38.6712L151.347 38.3694C151.304 38.3694 151.304 38.303 151.347 38.2728L151.841 37.9831C151.894 37.9588 151.956 37.9588 152.01 37.9831Z" fill="#3A2C6D"/>
<path d="M151.244 37.5546L151.768 37.8564C151.811 37.8564 151.805 37.9288 151.768 37.9529L151.268 38.2427C151.217 38.2695 151.156 38.2695 151.106 38.2427L150.581 37.9409C150.539 37.9409 150.545 37.8745 150.581 37.8443L151.081 37.5606C151.131 37.5319 151.192 37.5296 151.244 37.5546Z" fill="#3A2C6D"/>
<path d="M150.509 37.1321L151.027 37.4339C151.069 37.4339 151.063 37.5003 151.027 37.5304L150.533 37.8141C150.48 37.841 150.417 37.841 150.364 37.8141L149.846 37.5123C149.804 37.5123 149.81 37.4459 149.846 37.4218L150.34 37.1321C150.393 37.1052 150.456 37.1052 150.509 37.1321Z" fill="#3A2C6D"/>
<path d="M149.768 36.7035L150.292 37.0053C150.334 37.0053 150.328 37.0717 150.292 37.1019L149.792 37.3916C149.74 37.4156 149.68 37.4156 149.629 37.3916L149.105 37.0898C149.062 37.0898 149.068 37.0234 149.105 36.9932L149.605 36.7035C149.656 36.6767 149.717 36.6767 149.768 36.7035Z" fill="#3A2C6D"/>
<path d="M149.032 36.275L149.551 36.5768C149.593 36.5768 149.593 36.6432 149.551 36.6733L149.056 36.9631C149.003 36.99 148.941 36.99 148.888 36.9631L148.369 36.6613C148.327 36.6613 148.333 36.5949 148.369 36.5647L148.863 36.281C148.916 36.2522 148.978 36.25 149.032 36.275Z" fill="#3A2C6D"/>
<path d="M148.297 35.8525L148.815 36.1543C148.857 36.1543 148.851 36.2207 148.815 36.2508L148.315 36.5345C148.264 36.5614 148.203 36.5614 148.152 36.5345L147.628 36.2327C147.586 36.2327 147.592 36.1663 147.628 36.1362L148.128 35.8525C148.181 35.8256 148.244 35.8256 148.297 35.8525Z" fill="#3A2C6D"/>
<path d="M147.556 35.4239L148.08 35.7257C148.122 35.7257 148.116 35.7921 148.08 35.8223L147.58 36.106C147.529 36.1328 147.468 36.1328 147.417 36.106L146.893 35.8042C146.851 35.8042 146.857 35.7318 146.893 35.7076L147.393 35.4179C147.445 35.3929 147.506 35.3952 147.556 35.4239Z" fill="#3A2C6D"/>
<path d="M146.465 34.7902L147.339 35.2972C147.381 35.2972 147.375 35.3636 147.339 35.3938L146.844 35.6835C146.791 35.7077 146.729 35.7077 146.676 35.6835L145.802 35.1765C145.76 35.1765 145.76 35.1101 145.802 35.0799L146.296 34.7902C146.35 34.7659 146.411 34.7659 146.465 34.7902Z" fill="#3A2C6D"/>
<path d="M156.029 39.4981L156.554 39.7999C156.596 39.7999 156.59 39.8663 156.554 39.8965L156.054 40.1802C156.004 40.2106 155.941 40.2106 155.891 40.1802L155.367 39.8844C155.324 39.8844 155.33 39.812 155.367 39.7878L155.867 39.4981C155.918 39.4713 155.979 39.4713 156.029 39.4981Z" fill="#3A2C6D"/>
<path d="M155.294 39.0696L155.813 39.3714C155.855 39.3714 155.849 39.4377 155.813 39.4679L155.318 39.7576C155.265 39.7819 155.203 39.7819 155.15 39.7576L154.631 39.4559C154.589 39.4559 154.589 39.3895 154.631 39.3593L155.125 39.0696C155.179 39.0427 155.241 39.0427 155.294 39.0696Z" fill="#3A2C6D"/>
<path d="M154.553 38.641L155.071 38.9428C155.119 38.9428 155.113 39.0092 155.071 39.0394L154.577 39.3291C154.523 39.3534 154.462 39.3534 154.408 39.3291L153.89 39.0273C153.848 39.0273 153.854 38.9609 153.89 38.9307L154.384 38.641C154.438 38.6167 154.499 38.6167 154.553 38.641Z" fill="#3A2C6D"/>
<path d="M153.818 38.2125L154.342 38.5143C154.384 38.5143 154.378 38.5867 154.342 38.6108L153.842 38.9006C153.791 38.9274 153.73 38.9274 153.679 38.9006L153.155 38.5988C153.112 38.5988 153.119 38.5324 153.155 38.5022L153.655 38.2185C153.705 38.1898 153.766 38.1875 153.818 38.2125Z" fill="#3A2C6D"/>
<path d="M153.082 37.79L153.601 38.0918C153.643 38.0918 153.637 38.1582 153.601 38.1883L153.106 38.4781C153.053 38.5023 152.991 38.5023 152.938 38.4781L152.419 38.1763C152.377 38.1763 152.377 38.1099 152.419 38.0797L152.914 37.79C152.967 37.7657 153.029 37.7657 153.082 37.79Z" fill="#3A2C6D"/>
<path d="M152.341 37.3614L152.865 37.6632C152.908 37.6632 152.902 37.7356 152.865 37.7598L152.365 38.0495C152.314 38.0763 152.253 38.0763 152.202 38.0495L151.678 37.7477C151.636 37.7477 151.642 37.6813 151.678 37.6511L152.178 37.3675C152.228 37.3387 152.289 37.3365 152.341 37.3614Z" fill="#3A2C6D"/>
<path d="M151.6 36.9389L152.124 37.2407C152.166 37.2407 152.16 37.3071 152.124 37.3312L151.624 37.621C151.573 37.6478 151.512 37.6478 151.461 37.621L150.937 37.3192C150.895 37.3192 150.901 37.2528 150.937 37.2226L151.437 36.9389C151.488 36.9121 151.549 36.9121 151.6 36.9389Z" fill="#3A2C6D"/>
<path d="M150.864 36.5285L151.383 36.8303C151.425 36.8303 151.419 36.8967 151.383 36.9268L150.889 37.2105C150.836 37.2374 150.773 37.2374 150.72 37.2105L150.201 36.9087C150.159 36.9087 150.165 36.8423 150.201 36.8182L150.696 36.5285C150.749 36.5016 150.811 36.5016 150.864 36.5285Z" fill="#3A2C6D"/>
<path d="M150.123 36.0818L150.647 36.3836C150.69 36.3836 150.684 36.45 150.647 36.4802L150.147 36.7639C150.096 36.7907 150.035 36.7907 149.984 36.7639L149.46 36.4621C149.418 36.4621 149.424 36.3897 149.46 36.3655L149.96 36.0758C150.012 36.0508 150.073 36.0531 150.123 36.0818Z" fill="#3A2C6D"/>
<path d="M149.388 35.6533L149.906 35.9551C149.948 35.9551 149.942 36.0215 149.906 36.0517L149.406 36.3414C149.354 36.3654 149.295 36.3654 149.243 36.3414L148.719 36.0396C148.677 36.0396 148.683 35.9732 148.719 35.943L149.219 35.6533C149.273 35.629 149.334 35.629 149.388 35.6533Z" fill="#3A2C6D"/>
<path d="M148.646 35.2247L149.165 35.5265C149.207 35.5265 149.207 35.5929 149.165 35.6231L148.671 35.9128C148.618 35.9397 148.555 35.9397 148.502 35.9128L147.984 35.611C147.941 35.611 147.947 35.5446 147.984 35.5145L148.478 35.2247C148.531 35.2005 148.593 35.2005 148.646 35.2247Z" fill="#3A2C6D"/>
<path d="M147.905 34.8022L148.43 35.098C148.472 35.098 148.466 35.1704 148.43 35.1946L147.929 35.4843C147.878 35.5111 147.818 35.5111 147.767 35.4843L147.242 35.1825C147.2 35.1825 147.206 35.1161 147.242 35.0859L147.742 34.8022C147.792 34.7718 147.855 34.7718 147.905 34.8022Z" fill="#3A2C6D"/>
<path d="M156.771 39.9267L157.645 40.4337C157.687 40.4337 157.687 40.5001 157.645 40.5302L157.151 40.8139C157.097 40.8408 157.035 40.8408 156.982 40.8139L156.108 40.3069C156.066 40.3069 156.072 40.2405 156.108 40.2103L156.602 39.9267C156.655 39.8998 156.718 39.8998 156.771 39.9267Z" fill="#3A2C6D"/>
<path d="M146.501 34.766L147.019 35.0678C147.069 35.0917 147.126 35.0917 147.176 35.0678L147.7 34.76C147.719 34.753 147.732 34.7349 147.732 34.7147C147.732 34.6945 147.719 34.6765 147.7 34.6695H147.658C147.622 34.6695 147.622 34.6151 147.658 34.591L148.213 34.2711C148.261 34.2711 148.261 34.2047 148.213 34.1806L147.881 33.9874C147.832 33.9636 147.774 33.9636 147.724 33.9874L147.206 34.2892L147.098 34.3496L147.019 34.3978L146.941 34.4401L146.495 34.6996C146.479 34.7198 146.482 34.7491 146.501 34.766Z" fill="#3A2C6D"/>
<path d="M159.242 38.8885L159.766 39.1903C159.808 39.1903 159.802 39.2567 159.766 39.2869L159.266 39.5705C159.216 39.601 159.153 39.601 159.103 39.5705L158.579 39.2748C158.537 39.2446 158.543 39.2024 158.579 39.1782L159.079 38.8885C159.13 38.8617 159.191 38.8617 159.242 38.8885Z" fill="#3A2C6D"/>
<path d="M158.531 38.4599L159.055 38.7617C159.097 38.7617 159.091 38.8342 159.055 38.8583L158.555 39.148C158.504 39.1749 158.443 39.1749 158.392 39.148L157.868 38.8462C157.825 38.8462 157.832 38.7798 157.868 38.7497L158.368 38.466C158.418 38.4372 158.479 38.435 158.531 38.4599Z" fill="#3A2C6D"/>
<path d="M157.795 38.0374L158.32 38.3392C158.362 38.3392 158.356 38.4056 158.32 38.4358L157.819 38.7195C157.769 38.7463 157.708 38.7463 157.657 38.7195L157.132 38.4177C157.09 38.4177 157.096 38.3453 157.132 38.3211L157.633 38.0314C157.685 38.0064 157.745 38.0087 157.795 38.0374Z" fill="#3A2C6D"/>
<path d="M151.533 34.4159L152.052 34.7177C152.094 34.7177 152.088 34.7841 152.052 34.8143L151.557 35.098C151.504 35.1249 151.442 35.1249 151.389 35.098L150.87 34.7962C150.822 34.7962 150.828 34.7298 150.87 34.6996L151.365 34.4159C151.418 34.3891 151.48 34.3891 151.533 34.4159Z" fill="#3A2C6D"/>
<path d="M150.804 33.9874L151.328 34.2892C151.371 34.2892 151.365 34.3556 151.328 34.3858L150.828 34.6755C150.777 34.6995 150.717 34.6995 150.666 34.6755L150.141 34.3737C150.099 34.3737 150.105 34.3073 150.141 34.2771L150.641 33.9874C150.693 33.9634 150.753 33.9634 150.804 33.9874Z" fill="#3A2C6D"/>
<path d="M150.057 33.5649L150.581 33.8667C150.623 33.8667 150.617 33.9331 150.581 33.9633L150.081 34.2469C150.03 34.2738 149.969 34.2738 149.918 34.2469L149.394 33.9451C149.352 33.9451 149.358 33.8788 149.394 33.8546L149.894 33.5649C149.945 33.5381 150.006 33.5381 150.057 33.5649Z" fill="#3A2C6D"/>
<path d="M149.322 33.1364L149.846 33.4381C149.888 33.4381 149.882 33.5045 149.846 33.5347L149.346 33.8244C149.294 33.8485 149.235 33.8485 149.183 33.8244L148.659 33.5226C148.616 33.5226 148.622 33.4563 148.659 33.4261L149.159 33.1364C149.21 33.1123 149.27 33.1123 149.322 33.1364Z" fill="#3A2C6D"/>
<path d="M156.873 37.5003L157.584 37.9107C157.627 37.9107 157.621 37.9831 157.584 38.0073L157.084 38.297C157.033 38.3238 156.972 38.3238 156.921 38.297L156.228 37.8926C156.186 37.8926 156.186 37.8262 156.228 37.796L156.723 37.5063C156.77 37.4852 156.824 37.483 156.873 37.5003Z" fill="#3A2C6D"/>
<path d="M152.269 34.8385L152.98 35.2489C153.022 35.2489 153.016 35.3153 152.98 35.3455L152.48 35.6352C152.428 35.6592 152.369 35.6592 152.317 35.6352L151.606 35.2247C151.564 35.2247 151.564 35.1584 151.606 35.1282L152.1 34.8385C152.154 34.8142 152.215 34.8142 152.269 34.8385Z" fill="#3A2C6D"/>
<path d="M153.215 35.3756L156.68 37.3795C156.723 37.3795 156.717 37.4459 156.68 37.4761L156.186 37.7598C156.133 37.7867 156.07 37.7867 156.017 37.7598L152.552 35.7559C152.51 35.7559 152.516 35.6895 152.552 35.6654L153.052 35.3756C153.103 35.3488 153.164 35.3488 153.215 35.3756Z" fill="#3A2C6D"/>
<path d="M156.548 38.9428L157.066 39.2446C157.108 39.2446 157.102 39.311 157.066 39.3412L156.572 39.6309C156.518 39.6552 156.457 39.6552 156.403 39.6309L155.885 39.3291C155.843 39.3291 155.843 39.2627 155.885 39.2325L156.379 38.9428C156.433 38.9185 156.494 38.9185 156.548 38.9428Z" fill="#3A2C6D"/>
<path d="M155.807 38.5384L156.331 38.8402C156.373 38.8402 156.367 38.9126 156.331 38.9368L155.831 39.2265C155.78 39.2533 155.719 39.2533 155.668 39.2265L155.144 38.9247C155.101 38.9247 155.107 38.8583 155.144 38.8281L155.644 38.5444C155.694 38.5157 155.755 38.5134 155.807 38.5384Z" fill="#3A2C6D"/>
<path d="M155.071 38.1159L155.596 38.4177C155.638 38.4177 155.632 38.4841 155.596 38.5143L155.095 38.798C155.042 38.8248 154.98 38.8248 154.927 38.798L154.408 38.4962C154.366 38.466 154.372 38.4237 154.408 38.3996L154.909 38.1099C154.96 38.0849 155.021 38.0872 155.071 38.1159Z" fill="#3A2C6D"/>
<path d="M154.336 37.6874L154.854 37.9892C154.896 37.9892 154.89 38.0555 154.854 38.0857L154.36 38.3754C154.306 38.3997 154.245 38.3997 154.191 38.3754L153.673 38.0737C153.631 38.0737 153.637 38.0073 153.673 37.9771L154.167 37.6874C154.221 37.6631 154.282 37.6631 154.336 37.6874Z" fill="#3A2C6D"/>
<path d="M153.595 37.2649L154.119 37.5666C154.161 37.5666 154.155 37.633 154.119 37.6632L153.619 37.9469C153.568 37.9737 153.507 37.9737 153.456 37.9469L152.932 37.6451C152.889 37.6451 152.895 37.5787 152.932 37.5485L153.432 37.2649C153.483 37.238 153.544 37.238 153.595 37.2649Z" fill="#3A2C6D"/>
<path d="M152.859 36.8363L153.384 37.1381C153.426 37.1381 153.42 37.2045 153.384 37.2347L152.883 37.5244C152.832 37.5484 152.772 37.5484 152.721 37.5244L152.196 37.2226C152.154 37.2226 152.16 37.1562 152.196 37.126L152.697 36.8363C152.748 36.8123 152.808 36.8123 152.859 36.8363Z" fill="#3A2C6D"/>
<path d="M152.124 36.4078L152.642 36.7096C152.685 36.7096 152.685 36.782 152.642 36.8061L152.148 37.0959C152.095 37.1227 152.032 37.1227 151.979 37.0959L151.461 36.7941C151.419 36.7941 151.425 36.7277 151.461 36.6975L151.955 36.4138C152.007 36.385 152.07 36.3828 152.124 36.4078Z" fill="#3A2C6D"/>
<path d="M151.407 35.9853L151.925 36.287C151.967 36.287 151.961 36.3534 151.925 36.3836L151.431 36.6673C151.379 36.6975 151.314 36.6975 151.262 36.6673L150.744 36.3716C150.702 36.3716 150.702 36.2991 150.744 36.275L151.238 35.9853C151.291 35.9584 151.354 35.9584 151.407 35.9853Z" fill="#3A2C6D"/>
<path d="M150.647 35.5567L151.172 35.8585C151.214 35.8585 151.208 35.9249 151.172 35.9551L150.672 36.2448C150.62 36.2688 150.56 36.2688 150.509 36.2448L149.985 35.943C149.942 35.943 149.948 35.8766 149.985 35.8464L150.485 35.5567C150.536 35.5327 150.596 35.5327 150.647 35.5567Z" fill="#3A2C6D"/>
<path d="M149.912 35.1342L150.43 35.436C150.479 35.436 150.473 35.5024 150.43 35.5265L149.93 35.8163C149.877 35.8431 149.815 35.8431 149.761 35.8163L149.243 35.5145C149.201 35.5145 149.207 35.4481 149.243 35.4179L149.737 35.1342C149.792 35.1052 149.857 35.1052 149.912 35.1342Z" fill="#3A2C6D"/>
<path d="M149.177 34.7177L149.695 35.0195C149.737 35.0195 149.731 35.0859 149.695 35.1161L149.201 35.4058C149.147 35.4301 149.086 35.4301 149.032 35.4058L148.514 35.104C148.472 35.104 148.478 35.0376 148.514 35.0075L148.996 34.7177C149.052 34.6866 149.121 34.6866 149.177 34.7177Z" fill="#3A2C6D"/>
<path d="M148.436 34.2771L148.96 34.5789C149.002 34.5789 148.996 34.6513 148.96 34.6755L148.46 34.9652C148.409 34.992 148.348 34.992 148.297 34.9652L147.773 34.6634C147.73 34.6634 147.736 34.597 147.773 34.5668L148.273 34.2832C148.323 34.2544 148.384 34.2522 148.436 34.2771Z" fill="#3A2C6D"/>
<path d="M157.283 39.3955L158.362 39.9991C158.404 39.9991 158.398 40.0655 158.362 40.0957L157.862 40.3854C157.81 40.4094 157.751 40.4094 157.699 40.3854L156.62 39.7818C156.578 39.7818 156.584 39.7154 156.62 39.6852L157.114 39.4015C157.166 39.3727 157.229 39.3705 157.283 39.3955Z" fill="#3A2C6D"/>
<path d="M157.627 38.7678L158.145 39.0696C158.193 39.0696 158.187 39.136 158.145 39.1601L157.651 39.4498C157.598 39.4767 157.535 39.4767 157.482 39.4498L156.964 39.148C156.921 39.148 156.927 39.0816 156.964 39.0515L157.458 38.7678C157.511 38.7409 157.574 38.7409 157.627 38.7678Z" fill="#3A2C6D"/>
<path d="M156.891 38.3392L157.41 38.641C157.452 38.641 157.446 38.7074 157.41 38.7376L156.915 39.0273C156.862 39.0516 156.8 39.0516 156.747 39.0273L156.228 38.7255C156.186 38.7255 156.192 38.6591 156.228 38.6289L156.723 38.3392C156.776 38.3123 156.838 38.3123 156.891 38.3392Z" fill="#3A2C6D"/>
<path d="M156.15 37.9107L156.674 38.2125C156.717 38.2125 156.711 38.2849 156.674 38.3091L156.174 38.5988C156.123 38.6256 156.062 38.6256 156.011 38.5988L155.487 38.297C155.445 38.297 155.451 38.2306 155.487 38.2004L155.987 37.9167C156.037 37.888 156.098 37.8857 156.15 37.9107Z" fill="#3A2C6D"/>
<path d="M155.415 37.4882L155.939 37.79C155.981 37.79 155.975 37.8564 155.939 37.8865L155.439 38.1702C155.389 38.2006 155.326 38.2006 155.276 38.1702L154.752 37.8745C154.71 37.8443 154.716 37.802 154.752 37.7779L155.252 37.4882C155.303 37.4613 155.364 37.4613 155.415 37.4882Z" fill="#3A2C6D"/>
<path d="M154.679 37.0596L155.198 37.3614C155.24 37.3614 155.24 37.4278 155.198 37.458L154.704 37.7477C154.65 37.772 154.588 37.772 154.535 37.7477L154.016 37.4459C153.974 37.4459 153.98 37.3795 154.016 37.3494L154.511 37.0596C154.564 37.0354 154.626 37.0354 154.679 37.0596Z" fill="#3A2C6D"/>
<path d="M153.944 36.6371L154.462 36.9389C154.505 36.9389 154.499 37.0053 154.462 37.0295L153.968 37.3192C153.915 37.3461 153.853 37.3461 153.8 37.3192L153.281 37.0174C153.239 37.0174 153.239 36.951 153.281 36.9208L153.775 36.6371C153.828 36.6102 153.891 36.6102 153.944 36.6371Z" fill="#3A2C6D"/>
<path d="M153.215 36.2086L153.739 36.5104C153.781 36.5104 153.775 36.5768 153.739 36.6069L153.239 36.8967C153.187 36.9207 153.128 36.9207 153.076 36.8967L152.552 36.5949C152.51 36.5949 152.516 36.5285 152.552 36.4983L153.052 36.2086C153.104 36.1845 153.163 36.1845 153.215 36.2086Z" fill="#3A2C6D"/>
<path d="M152.468 35.78L152.992 36.0818C153.034 36.0818 153.028 36.1543 152.992 36.1784L152.492 36.4681C152.441 36.495 152.38 36.495 152.329 36.4681L151.805 36.1663C151.762 36.1663 151.768 36.0999 151.805 36.0698L152.305 35.7861C152.355 35.7573 152.416 35.7551 152.468 35.78Z" fill="#3A2C6D"/>
<path d="M151.732 35.3575L152.251 35.6593C152.293 35.6593 152.287 35.7257 152.251 35.7559L151.756 36.0396C151.703 36.0665 151.641 36.0665 151.588 36.0396L151.069 35.7378C151.027 35.7378 151.033 35.6654 151.069 35.6412L151.564 35.3515C151.618 35.3265 151.68 35.3287 151.732 35.3575Z" fill="#3A2C6D"/>
<path d="M150.997 34.929L151.515 35.2308C151.558 35.2308 151.551 35.2972 151.515 35.3274L151.021 35.6171C150.967 35.6413 150.906 35.6413 150.852 35.6171L150.334 35.3153C150.286 35.3153 150.292 35.2489 150.334 35.2187L150.828 34.929C150.882 34.9047 150.943 34.9047 150.997 34.929Z" fill="#3A2C6D"/>
<path d="M150.256 34.5065L150.78 34.8083C150.822 34.8083 150.816 34.8747 150.78 34.9048L150.28 35.1885C150.229 35.2154 150.168 35.2154 150.117 35.1885L149.593 34.8867C149.551 34.8867 149.557 34.8203 149.593 34.7962L150.093 34.5065C150.144 34.4797 150.205 34.4797 150.256 34.5065Z" fill="#3A2C6D"/>
<path d="M148.61 33.5528L150.045 34.3797C150.087 34.3797 150.081 34.4461 150.045 34.4763L149.545 34.766C149.491 34.7903 149.429 34.7903 149.376 34.766L147.947 33.9331C147.905 33.9331 147.905 33.8667 147.947 33.8425L148.442 33.5528C148.495 33.5259 148.557 33.5259 148.61 33.5528Z" fill="#3A2C6D"/>
<path d="M158.362 39.1903L159.073 39.6007C159.115 39.6007 159.109 39.6731 159.073 39.6973L158.579 39.987C158.526 40.0139 158.463 40.0139 158.41 39.987L157.699 39.5766C157.657 39.5766 157.663 39.5102 157.699 39.48L158.199 39.1903C158.251 39.1662 158.31 39.1662 158.362 39.1903Z" fill="#3A2C6D"/>
<path d="M145.723 35.2187L156.186 41.2545C156.228 41.2545 156.228 41.3209 156.186 41.3511L155.939 41.4899C155.888 41.5168 155.827 41.5168 155.776 41.4899L145.308 35.4541C145.265 35.4541 145.271 35.3877 145.308 35.3575L145.555 35.2127C145.609 35.1903 145.671 35.1925 145.723 35.2187Z" fill="#3A2C6D"/>
<path d="M157.97 35.4903L157.898 35.5265L156.09 36.5768L152.877 34.7177L152.811 34.6755L154.685 33.5951L157.97 35.4903Z" fill="#BFBFBF"/>
<path d="M157.898 35.5265L156.09 36.5768L152.877 34.7177L154.685 33.6735L157.898 35.5265Z" fill="#E5E5E5"/>
<path d="M163.123 37.9288V38.0918C163.125 38.3275 163.001 38.5462 162.798 38.6652L156.421 42.347C156.219 42.4671 155.967 42.4671 155.764 42.347L144.229 35.7076C144.015 35.584 143.887 35.3514 143.897 35.104V34.9411L156.09 41.9909L163.123 37.9288Z" fill="#E5E5E5"/>
<path d="M155.909 42.0935C155.688 42.1806 155.44 42.1628 155.234 42.0452L143.783 35.4058C143.58 35.2892 143.441 35.0875 143.403 34.8566L142.143 27.348C142.14 27.3058 142.14 27.2634 142.143 27.2213C142.143 27.0118 142.228 26.8111 142.379 26.666L154.312 33.5649C154.457 33.6543 154.558 33.8013 154.589 33.9693L155.909 42.0935Z" fill="#F4F4F4"/>
<path d="M156.09 41.9969L156.011 42.0452L155.909 42.0935L154.547 33.9693C154.516 33.8013 154.415 33.6543 154.27 33.5649L142.366 26.666C142.41 26.616 142.464 26.575 142.523 26.5452L154.481 33.4563C154.628 33.5444 154.731 33.6916 154.764 33.8607L156.09 41.9969Z" fill="#E5E5E5"/>
<path d="M164.762 9.86826C164.762 9.86826 164.612 12.7232 164.678 12.9767C164.744 13.2302 165.986 14.0692 166.348 14.371C166.709 14.6728 164.377 16.9785 163.244 17.4975C162.111 18.0166 158.507 16.6465 158.422 14.872C158.338 13.0974 159.025 11.6186 159.591 11.5402C160.158 11.4617 164.762 9.86826 164.762 9.86826Z" fill="#FFCEA9"/>
<path d="M165.076 13.4716C165.076 13.4716 163.009 16.562 160.122 16.8517C159.212 15.9524 159.127 12.7534 160.387 11.7333C160.387 11.7333 159.23 10.7917 158.434 10.9788C157.573 11.4888 156.929 12.2989 156.626 13.2544C155.887 15.3872 155.542 17.637 155.608 19.8938C155.656 22.9117 155.608 30.5832 155.608 30.5832C155.95 32.4139 157.058 34.0107 158.651 34.9712C160.738 36.1566 163.198 36.4978 165.528 35.9249C166.992 35.5809 167.535 34.766 168.041 33.6977C167.909 31.5791 167.071 27.2031 167.438 24.5293C167.806 21.8554 168.355 19.8636 168.499 17.7088C168.644 15.554 168.216 15.5902 167.131 14.8176C166.479 14.3198 165.793 13.8699 165.076 13.4716Z" fill="#F4F4F4"/>
<path d="M161.761 38.0918C162.28 37.7458 162.822 37.4352 163.382 37.1622C163.905 36.9953 164.38 36.7055 164.769 36.3172C165.275 35.8223 166.106 33.9391 166.703 32.0922C167.297 30.0209 167.531 27.863 167.396 25.7123C167.149 23.135 166.221 19.5316 165.986 18.0528C165.751 16.5741 166.227 15.9765 166.92 15.4333C167.728 14.7935 168.843 15.0772 169.439 17.1535C170.208 20.0261 170.652 22.9759 170.765 25.9477C170.79 28.1553 170.45 30.3518 169.759 32.4483C169.144 34.2442 168.315 35.9588 167.288 37.5546C167.004 38.0314 166.908 38.46 166.474 39.4378C166.057 40.4203 165.408 41.2863 164.582 41.9607C163.858 42.4798 163.515 42.5643 163.34 42.4557C163.165 42.347 163.171 42.0996 163.479 41.8521C163.992 41.4481 164.429 40.9555 164.769 40.3974C164.769 40.3974 164.136 41.0372 163.72 41.3873C163.354 41.697 162.949 41.9568 162.514 42.1599C162.093 42.347 161.502 41.9849 161.803 41.7012C162.105 41.4175 162.406 41.2726 163.009 40.7475C163.333 40.472 163.622 40.1579 163.87 39.812C163.446 40.139 162.997 40.4317 162.526 40.6872C162.163 40.9073 161.746 41.0223 161.321 41.0191C161.098 41.0191 160.827 40.6932 161.249 40.4156C161.829 40.101 162.369 39.718 162.858 39.2748C163.322 38.8161 163.581 38.4237 163.461 38.4177C163.34 38.4117 163.075 38.6953 162.533 38.8704C161.99 39.0454 161.405 38.8704 161.327 38.5867C161.249 38.303 161.255 38.3392 161.761 38.0918Z" fill="#FFCEA9"/>
<path d="M158.302 5.60696C158.645 3.39182 160.242 1.71386 162.52 1.84061C164.405 1.93659 166.017 3.22829 166.524 5.04837C167.031 6.86845 166.319 8.80932 164.756 9.86825C164.676 10.2048 164.556 10.5309 164.401 10.84C163.599 11.7816 161.158 12.3852 160.447 12.2645C159.596 12.187 158.878 11.5956 158.639 10.7736C157.88 9.03531 158.115 6.70548 158.302 5.60696Z" fill="#FFCEA9"/>
<path d="M164.762 9.86826L164.552 7.93076C164.552 7.93076 166.131 3.83847 162.4 4.62313C159.941 5.14221 159.32 5.37157 158.573 3.71775C157.826 2.06394 160.447 0.573091 163.599 0.989563C165.839 1.22151 167.527 3.13502 167.481 5.38968C167.402 6.60891 167.077 9.07153 164.762 9.86826Z" fill="#3A2C6D"/>
<path d="M171.145 20.9742C171.145 20.9742 169.108 23.0022 166.703 22.4167C166.36 22.1813 165.528 17.4432 165.528 17.4432C165.528 17.4432 165.528 14.8176 167.541 14.884C169.554 14.9504 171.145 20.9742 171.145 20.9742Z" fill="#EDEDED"/>
<path d="M155.776 17.0388C155.207 17.0183 154.667 16.7783 154.27 16.3688C154.354 15.3065 155.71 11.2746 158.434 10.9789C157.693 11.4994 157.106 12.2104 156.735 13.0371C156.311 14.3437 155.99 15.6818 155.776 17.0388Z" fill="#EDEDED"/>
<path d="M277.729 189.099L227.26 159.929C224.088 158.115 221.52 153.185 221.52 148.956V69.4637C221.52 65.2293 224.088 63.2935 227.26 65.1204L277.729 94.2956C280.895 96.1104 283.463 101.04 283.463 105.269V184.773C283.463 189.008 280.895 190.931 277.729 189.099Z" fill="#211B49"/>
<path d="M280.115 189.792L281.789 188.885L280.659 186.449L280.115 189.792Z" fill="#211B49"/>
<path d="M221.52 65.4458C222.112 65.047 222.733 64.708 223.377 64.4326L224.868 67.7755L221.52 65.4458Z" fill="#211B49"/>
<path d="M276.055 189.102L225.58 159.915C222.414 158.1 219.846 153.17 219.846 148.941V69.4663C219.846 65.2318 222.414 63.29 225.58 65.123L276.055 94.2985C279.221 96.1133 281.789 101.037 281.789 105.266V184.759C281.789 188.987 279.221 190.935 276.055 189.102Z" fill="#2E245B"/>
<path d="M234.913 81.1471L226.542 76.0037V72.7898L234.913 77.9332V81.1471Z" fill="#A298E2"/>
<path d="M275.093 104.548L236.587 82.6845V79.4757L275.093 101.333V104.548Z" fill="#C33AFC"/>
<path d="M234.913 92.8473L226.542 87.7039V84.4901L234.913 89.6335V92.8473Z" fill="#A298E2"/>
<path d="M261.699 107.89L236.587 92.8473V89.5044L261.699 104.548V107.89Z" fill="#F4CE2C"/>
<path d="M234.913 97.8617L226.542 92.7206V89.5044L234.913 94.6456V97.8617Z" fill="#A298E2"/>
<path d="M268.396 117.919L236.587 99.4823V96.1903L268.396 114.627V117.919Z" fill="#FF8657"/>
<path d="M234.913 102.876L226.542 97.7327V94.5188L234.913 99.6622V102.876Z" fill="#A298E2"/>
<path d="M258.351 117.919L236.587 104.616V101.205L258.351 114.508V117.919Z" fill="#A298E2"/>
<path d="M234.913 87.833L226.542 82.6896V79.4757L234.913 84.6191V87.833Z" fill="#A298E2"/>
<path d="M256.677 99.5332L236.587 87.9078V84.4901L256.677 96.1092V99.5332Z" fill="#4D3BFF"/>
<path d="M234.913 107.89L226.542 102.747V99.5332L234.913 104.677V107.89Z" fill="#A298E2"/>
<path d="M248.306 116.248L236.587 109.562V106.219L248.306 112.905V116.248Z" fill="#C33AFC"/>
<path d="M234.913 119.591L226.542 114.45V111.233L234.913 116.38V119.591Z" fill="#A298E2"/>
<path d="M273.418 139.648L236.587 119.454V116.248L273.418 136.442V139.648Z" fill="#F4CE2C"/>
<path d="M234.913 124.605L226.542 119.462V116.248L234.913 121.391V124.605Z" fill="#A298E2"/>
<path d="M246.632 131.291L236.587 124.721V121.262L246.632 127.832V131.291Z" fill="#FF8657"/>
<path d="M234.913 129.619L226.542 124.476V121.262L234.913 126.406V129.619Z" fill="#A298E2"/>
<path d="M268.396 149.677L236.587 131.235V127.948L268.396 146.384V149.677Z" fill="#A298E2"/>
<path d="M234.913 112.905L226.542 107.761V104.548L234.913 109.691V112.905Z" fill="#A298E2"/>
<path d="M266.722 131.291L236.587 114.417V111.233L266.722 128.108V131.291Z" fill="#4D3BFF"/>
<path d="M234.913 134.634L226.542 129.49V126.277L234.913 131.42V134.634Z" fill="#A298E2"/>
<path d="M239.936 137.977L236.587 135.911V132.962L239.936 135.028V137.977Z" fill="#C33AFC"/>
<path d="M234.913 144.663L226.542 139.521V136.305L234.913 141.452V144.663Z" fill="#A298E2"/>
<path d="M243.284 151.348L236.587 146.626V142.991L243.284 147.714V151.348Z" fill="#F4CE2C"/>
<path d="M234.913 149.677L226.542 144.534V141.32L234.913 146.463V149.677Z" fill="#A298E2"/>
<path d="M256.677 163.049L236.587 151.425V148.005L256.677 159.629V163.049Z" fill="#FF8657"/>
<path d="M234.913 156.363L226.542 151.219V148.005L234.913 153.149V156.363Z" fill="#A298E2"/>
<path d="M266.722 174.749L236.587 156.414V153.02L266.722 171.354V174.749Z" fill="#A298E2"/>
<path d="M234.913 139.648L226.542 134.505V131.291L234.913 136.434V139.648Z" fill="#A298E2"/>
<path d="M275.093 163.049L236.587 141.191V137.977L275.093 159.829V163.049Z" fill="#4D3BFF"/>
<path d="M22.4536 128.567L16.9127 125.784L5.30228 132.325C2.67156 133.811 0.532959 132.61 0.532959 129.631V117.252C0.715008 113.967 2.48649 110.963 5.30228 109.166L74.4484 70.0832C77.0791 68.5967 79.2177 69.8038 79.2177 72.7767V85.1977C79.0357 88.483 77.2642 91.4866 74.4484 93.2841L27.9581 119.529" fill="#B1B4C4"/>
<path d="M76.903 69.4469L79.2177 70.5084L77.2583 72.7898L75.8694 70.2705L76.903 69.4469Z" fill="#B1B4C4"/>
<path d="M22.2968 128.325L25.6377 129.619L25.6451 126.846L22.6877 126.277L22.2968 128.325Z" fill="#B1B4C4"/>
<path d="M4.97413 132.939C5.06648 133.138 2.30692 131.988 2.20914 131.833C2.11136 131.678 5.55538 129.619 5.55538 129.619L4.97413 132.939Z" fill="#B1B4C4"/>
<path d="M29.6481 119.52L76.124 93.2557C78.9367 91.456 80.707 88.4535 80.8919 85.1689V72.7712C80.8919 69.7981 78.7539 68.6088 76.124 70.0716L6.97495 109.156C4.16149 110.955 2.39102 113.958 2.20709 117.242V129.64C2.20709 132.613 4.34503 133.803 6.97495 132.334L18.5818 125.793L24.1453 128.582L29.6481 119.52Z" fill="#E9EAF2"/>
<path d="M74.1953 82.122L8.90369 119.591V115.279L74.1953 77.8042V82.122Z" fill="#8C50FF"/>
<path d="M52.4314 102.114L8.90369 126.277V122.024L52.4314 97.8617V102.114Z" fill="#8C50FF"/>
<defs>
<linearGradient id="paint0_linear" x1="194.627" y1="174.807" x2="194.627" y2="58.7584" gradientUnits="userSpaceOnUse">
<stop offset="0.21" stop-color="white" stop-opacity="0"/>
<stop offset="1" stop-color="white" stop-opacity="0.2"/>
</linearGradient>
<linearGradient id="paint1_linear" x1="207.652" y1="144.821" x2="207.652" y2="176.18" gradientUnits="userSpaceOnUse">
<stop stop-color="#E9EAF2" stop-opacity="0.8"/>
<stop offset="1" stop-color="#E9EAF2" stop-opacity="0"/>
</linearGradient>
</defs>
</svg>
