<svg width="265" height="270" viewBox="0 0 265 270" fill="none" xmlns="http://www.w3.org/2000/svg">
<path opacity="0.15" d="M38.576 196.211C59.8809 196.211 77.1519 186.075 77.1519 173.571C77.1519 161.068 59.8809 150.932 38.576 150.932C17.271 150.932 0 161.068 0 173.571C0 186.075 17.271 196.211 38.576 196.211Z" fill="#D6D8E5"/>
<path opacity="0.5" d="M38.576 184.472C50.6179 184.472 60.3797 178.841 60.3797 171.894C60.3797 164.948 50.6179 159.317 38.576 159.317C26.534 159.317 16.7722 164.948 16.7722 171.894C16.7722 178.841 26.534 184.472 38.576 184.472Z" fill="#EDEFF9"/>
<path d="M38.576 169.379C42.2812 169.379 45.2848 167.877 45.2848 166.025C45.2848 164.172 42.2812 162.671 38.576 162.671C34.8707 162.671 31.8671 164.172 31.8671 166.025C31.8671 167.877 34.8707 169.379 38.576 169.379Z" fill="#EDEFF9"/>
<path d="M43.6076 120.745H31.8671V167.702H43.6076V120.745Z" fill="#EDEFF9"/>
<path d="M31.8671 118.578C31.8671 118.578 32.2116 128.359 39.475 145.901C39.475 145.901 46.2389 131.775 46.9394 118.281C47.6399 104.788 31.8671 118.578 31.8671 118.578Z" fill="#FFBC00"/>
<path d="M22.0984 83.8509L6.84516 99.8514L5.03165 120.745L23.4794 110.773L26.8354 85.2892L22.0984 83.8509Z" fill="#8C50FF"/>
<path d="M55.0535 83.8509L70.3015 99.8514L72.1203 120.745L53.6047 110.082L50.3165 85.2892L55.0535 83.8509Z" fill="#8C50FF"/>
<path d="M38.576 120.745C43.2075 120.745 46.962 118.868 46.962 116.553C46.962 114.237 43.2075 112.36 38.576 112.36C33.9444 112.36 30.1899 114.237 30.1899 116.553C30.1899 118.868 33.9444 120.745 38.576 120.745Z" fill="#424956"/>
<path d="M26.8354 112.181V107.329H50.3165V112.36L26.8354 112.181Z" fill="#494949"/>
<path d="M38.576 120.745C45.0601 120.745 50.3165 117.367 50.3165 113.199C50.3165 109.031 45.0601 105.652 38.576 105.652C32.0918 105.652 26.8354 109.031 26.8354 113.199C26.8354 117.367 32.0918 120.745 38.576 120.745Z" fill="#2B303F"/>
<path d="M37.7373 114.037C45.6109 114.037 51.9937 110.659 51.9937 106.491C51.9937 102.323 45.6109 98.9441 37.7373 98.9441C29.8638 98.9441 23.481 102.323 23.481 106.491C23.481 110.659 29.8638 114.037 37.7373 114.037Z" fill="#EDEFF9"/>
<path d="M55.3432 92.7293C55.3432 93.417 55.3432 94.0936 55.3432 94.7483C55.3432 95.2984 55.3432 95.8486 55.3432 96.3987C55.3432 97.1414 55.3046 97.8511 55.277 98.5443C55.277 99.408 55.2162 100.228 55.172 101.014C55.1279 101.801 55.0892 102.571 55.034 103.281C54.8076 106.389 54.8131 108.678 54.4265 109.574C52.3225 114.476 45.2041 111.775 41.6918 110.015C40.3941 109.365 39.5381 108.832 39.5381 108.832H39.2178C39.2178 108.832 38.2017 109.382 36.6996 109.976C33.0161 111.461 26.45 114.097 24.6276 109.558C24.3018 108.744 23.9759 106.054 23.7771 103.237C23.7274 102.533 23.6832 101.779 23.6391 100.976C23.5949 100.173 23.5728 99.3749 23.5397 98.5112C23.5397 97.8236 23.501 97.1139 23.4844 96.3767C23.4844 95.8266 23.4844 95.2764 23.4844 94.7263V92.7073C23.385 73.5131 25.4283 42.821 32.1767 29.7223C34.1261 25.9319 36.4676 23.6158 39.2675 23.4783H39.5878C42.349 23.6213 44.7181 25.9264 46.6731 29.7003C53.3276 42.7495 55.4647 73.3205 55.3432 92.7293Z" fill="#EDEFF9"/>
<path d="M40.2532 73.7888C43.0321 73.7888 45.2848 71.5363 45.2848 68.7578C45.2848 65.9792 43.0321 63.7267 40.2532 63.7267C37.4743 63.7267 35.2215 65.9792 35.2215 68.7578C35.2215 71.5363 37.4743 73.7888 40.2532 73.7888Z" fill="#2B303F"/>
<path d="M40.2532 75.4658C36.548 75.4658 33.5443 72.4625 33.5443 68.7578C33.5443 65.053 36.548 62.0497 40.2532 62.0497C43.9584 62.0497 46.962 65.053 46.962 68.7578C46.9589 72.4612 43.9571 75.4627 40.2532 75.4658ZM40.2532 63.7641C38.2327 63.7618 36.4098 64.977 35.635 66.8428C34.8602 68.7086 35.286 70.8574 36.7139 72.2868C38.1418 73.7161 40.2904 74.1444 42.1573 73.3718C44.0242 72.5993 45.2417 70.778 45.2417 68.7578C45.2385 66.0034 43.0079 63.7704 40.2532 63.7641Z" fill="#424956"/>
<path d="M40.2532 57.0186C43.0321 57.0186 45.2848 54.7661 45.2848 51.9876C45.2848 49.209 43.0321 46.9565 40.2532 46.9565C37.4743 46.9565 35.2215 49.209 35.2215 51.9876C35.2215 54.7661 37.4743 57.0186 40.2532 57.0186Z" fill="#2B303F"/>
<path d="M40.2589 58.6956C36.5545 58.6988 33.5485 55.6992 33.5443 51.9952C33.5401 48.2912 36.5391 45.2848 40.2436 45.2795C43.948 45.2742 46.9557 48.2721 46.962 51.9761C46.9652 55.6818 43.965 58.6893 40.2589 58.6956ZM40.2589 47.0039C38.2396 47.0016 36.418 48.2164 35.6441 50.0813C34.8703 51.9462 35.2969 54.0936 36.7247 55.5213C38.1526 56.949 40.3002 57.3755 42.1654 56.6018C44.0305 55.8281 45.2454 54.0066 45.2431 51.9876C45.2446 50.6643 44.7204 49.3946 43.7857 48.4579C42.8509 47.5211 41.5823 46.994 40.2589 46.9924V47.0039Z" fill="#424956"/>
<path d="M55.3481 102.298C55.3481 103.011 55.3481 103.713 55.3481 104.398C54.7967 106.28 53.2968 108.083 50.8595 109.532C44.5401 113.303 34.3166 113.303 27.9696 109.532C25.5323 108.072 24.038 106.263 23.481 104.398V102.304C24.0324 104.221 25.5213 106.046 27.9917 107.524C34.3166 111.295 44.5621 111.295 50.8815 107.524C53.3023 106.029 54.8353 104.209 55.3481 102.298Z" fill="#8C50FF"/>
<path d="M55.3481 105.671C55.3481 106.317 55.3095 106.943 55.2819 107.545C54.6636 109.049 53.1953 110.479 50.8658 111.645C44.5399 114.835 34.3058 114.835 27.9522 111.645C25.6283 110.47 24.16 109.029 23.5362 107.517C23.5362 106.914 23.4976 106.293 23.481 105.652C24.033 107.223 25.54 108.716 27.9467 109.93C34.2782 113.119 44.5344 113.119 50.8603 109.93C53.2781 108.721 54.7685 107.232 55.3481 105.671Z" fill="#8C50FF"/>
<path d="M55.3481 98.9845C54.7084 100.465 53.3337 101.874 51.2347 103.026C45.1755 106.366 35.3731 106.366 29.2875 103.026C27.1726 101.854 25.798 100.44 25.1582 98.9441C25.2005 99.6817 25.2428 100.374 25.2904 101.021C25.9725 102.415 27.3048 103.728 29.2875 104.825C31.8736 106.171 34.7268 106.984 37.6624 107.209C39.2443 107.356 40.8368 107.368 42.4209 107.245C45.5011 107.059 48.5017 106.233 51.2135 104.825C53.1804 103.739 54.5074 102.44 55.1948 101.061L55.3481 98.9845Z" fill="#8C50FF"/>
<path d="M45.2848 30.8717C40.3664 32.1939 35.1083 32.1939 30.1899 30.8717C32.2198 27.4015 34.658 25.2812 37.5735 25.1553H37.907C40.811 25.3064 43.2491 27.4167 45.2848 30.8717Z" fill="#8C50FF"/>
<path d="M40.2532 83.8509H36.8987V120.745H40.2532V83.8509Z" fill="#8C50FF"/>
<path opacity="0.4" d="M168.751 207.946L137.494 189.771C135.236 188.458 135.522 186.168 138.125 184.654L158.377 172.883L197.798 195.801L177.546 207.577C174.938 209.091 171.004 209.254 168.751 207.946Z" fill="#D6D8E5"/>
<path d="M171.031 206.595L139.774 188.415C137.521 187.107 137.801 184.817 140.404 183.303L160.662 171.532L200.083 194.449L179.852 206.22C177.223 207.74 173.283 207.903 171.031 206.595Z" fill="#B1B4C4"/>
<path d="M200.078 194.449V193.25L198.256 194.308L200.078 194.449Z" fill="#B1B4C4"/>
<path d="M138.249 186.249V185.028L140.119 185.81L138.249 186.249Z" fill="#B1B4C4"/>
<path d="M171.031 205.39L139.774 187.215C137.521 185.902 137.801 183.617 140.404 182.103L160.662 170.327L200.083 193.25L179.852 205.021C177.223 206.535 173.283 206.703 171.031 205.39Z" fill="#D6D8E5"/>
<path d="M160.759 170.381L155.882 154.079L195.734 177.1L200.078 193.25L160.759 170.381Z" fill="#9EA1AF"/>
<path d="M198.924 193.918L200.078 193.25L198.359 191.866L198.924 193.918Z" fill="#9EA1AF"/>
<path d="M159.503 170.995L154.626 154.692L194.478 177.713L198.919 193.918L159.503 170.995Z" fill="#B1B4C4"/>
<path d="M260.689 221.415L106.405 131.704C104.249 130.445 102.487 127.07 102.487 124.166V3.99958C102.487 1.09079 104.244 -0.244212 106.405 1.01482L260.689 90.7043C262.844 91.9634 264.607 95.3389 264.607 98.2422V218.409C264.59 221.312 262.844 222.647 260.689 221.415Z" fill="#C4C7D6"/>
<path d="M261.465 222.631L263.173 221.638L262.435 216.537L261.465 222.631Z" fill="#C4C7D6"/>
<path d="M102.212 1.75829L103.893 0.776031L106.313 2.17073C106.313 2.17073 103.737 2.56689 103.672 2.55061C103.608 2.53433 102.212 1.75829 102.212 1.75829Z" fill="#B1B4C4"/>
<path d="M259.255 222.213L104.993 132.524C102.837 131.265 101.075 127.895 101.075 124.986V4.81904C101.075 1.91567 102.826 0.580669 104.993 1.8397L259.255 91.5292C261.411 92.7883 263.173 96.1638 263.173 99.0671V219.245C263.173 222.137 261.422 223.472 259.255 222.213Z" fill="#E4E7F2"/>
<path d="M258.986 222.371L104.718 132.681C102.562 131.422 100.8 128.046 100.8 125.143V4.97642C100.8 2.07305 102.557 0.738048 104.718 1.99708L258.986 91.7137C261.141 92.9673 262.904 96.3428 262.904 99.2516V219.386C262.904 222.295 261.147 223.63 258.986 222.371Z" fill="#D6D8E5"/>
<path d="M260.78 215.061L102.789 123.189L102.842 5.4594C102.842 4.25464 103.683 3.76623 104.718 4.37403L258.986 94.0581C260.088 94.7825 260.784 95.9907 260.861 97.3142L260.78 215.061Z" fill="white"/>
<path d="M165.151 55.94L114.537 26.5156C114.063 26.1717 113.779 25.6221 113.771 25.0341V21.4795C113.771 20.9368 114.111 20.6492 114.537 20.8934L165.151 50.3177C165.623 50.6633 165.906 51.2119 165.916 51.7993V55.3539C165.916 55.9237 165.571 56.1896 165.151 55.94Z" fill="#E9EAF2"/>
<path d="M152.153 56.792L114.768 35.0574C114.293 34.717 114.007 34.1689 113.998 33.5813V31.8122C113.998 31.2695 114.343 30.9765 114.768 31.2261L152.153 52.9606C152.621 53.3051 152.901 53.8523 152.907 54.4367V56.2059C152.907 56.7757 152.573 57.0416 152.153 56.792Z" fill="#E9EAF2"/>
<path d="M152.153 63.4941L114.768 41.7867C114.293 41.4463 114.007 40.8982 113.998 40.3106V38.5306C113.998 37.9879 114.343 37.6949 114.768 37.9445L152.153 59.6953C152.625 60.0375 152.909 60.5851 152.918 61.1714V62.9406C152.907 63.4941 152.573 63.7492 152.153 63.4941Z" fill="#E9EAF2"/>
<path d="M145.098 66.1099L114.768 48.4726C114.293 48.1322 114.007 47.584 113.998 46.9965V45.2273C113.998 44.6847 114.343 44.3916 114.768 44.6412L145.098 62.2731C145.573 62.6164 145.859 63.1658 145.869 63.7546V65.5238C145.869 66.0936 145.524 66.3541 145.098 66.1099Z" fill="#8C50FF"/>
<path d="M165.151 126.359L114.537 96.9344C114.063 96.5905 113.779 96.0409 113.771 95.4528V91.8983C113.771 91.3284 114.111 91.0679 114.537 91.3122L165.151 120.737C165.623 121.082 165.906 121.631 165.916 122.218V125.773C165.916 126.342 165.571 126.603 165.151 126.359Z" fill="#E9EAF2"/>
<path d="M152.153 127.211L114.768 105.503C114.293 105.16 114.008 104.611 113.998 104.022V102.253C113.998 101.683 114.343 101.422 114.768 101.672L152.153 123.379C152.624 123.725 152.908 124.274 152.918 124.861V126.63C152.907 127.194 152.573 127.455 152.153 127.211Z" fill="#E9EAF2"/>
<path d="M152.153 133.918L114.768 112.184C114.294 111.842 114.008 111.295 113.998 110.708V108.939C113.998 108.396 114.343 108.108 114.768 108.358L152.153 130.065C152.624 130.411 152.908 130.959 152.918 131.547V133.316C152.907 133.902 152.573 134.163 152.153 133.918Z" fill="#E9EAF2"/>
<path d="M145.098 136.523L114.768 118.891C114.293 118.549 114.007 117.999 113.998 117.41V115.641C113.998 115.071 114.343 114.81 114.768 115.06L145.098 132.692C145.573 133.035 145.859 133.585 145.869 134.173V135.943C145.869 136.512 145.524 136.757 145.098 136.523Z" fill="#8C50FF"/>
<path d="M178.694 135.096C178.694 135.096 184.277 139.817 192.339 133.37C198.095 128.616 203.241 131.33 206.108 132.958C208.975 134.586 213.114 135.584 220.998 149.922C220.998 149.922 223.563 154.416 227.799 156.879C232.035 159.343 234.072 158.138 237.403 153.081C240.733 148.023 242.916 142.422 249.038 146.08V196.924L178.144 155.751V134.765L178.694 135.096Z" fill="#F5F6FF"/>
<path d="M163.286 113.541L114.785 85.3209C114.31 84.9776 114.024 84.4282 114.014 83.8394V55.6578C114.014 55.1151 114.359 54.8274 114.785 55.0716L163.286 83.2913C163.762 83.6346 164.047 84.184 164.057 84.7728V112.965C164.057 113.524 163.712 113.785 163.286 113.541Z" fill="#E9EAF2"/>
<path d="M178.144 133.913V155.74L249.038 196.951V146.107" stroke="#E9EAF2" stroke-width="0.31"/>
<path d="M206.006 133.213V171.885" stroke="#E9EAF2" stroke-width="0.31"/>
<path d="M227.697 157.672V184.491" stroke="#E9EAF2" stroke-width="0.31"/>
<path d="M178.144 134.765C190.722 142.618 192.501 124.866 206.205 132.833C219.91 140.8 218.018 151.181 228.133 157.064C238.249 162.947 238.486 139.969 249.038 146.107" stroke="#E9EAF2" stroke-width="1.53"/>
<path d="M207.191 135.279C207.845 134.902 207.842 133.674 207.185 132.537C206.528 131.399 205.466 130.783 204.813 131.16C204.16 131.537 204.163 132.765 204.819 133.902C205.476 135.04 206.538 135.656 207.191 135.279Z" fill="#8C50FF"/>
<path d="M251.216 148.762C251.872 148.385 251.872 147.153 251.215 146.01C250.558 144.868 249.494 144.247 248.838 144.624C248.181 145.001 248.182 146.233 248.838 147.376C249.495 148.519 250.56 149.139 251.216 148.762Z" fill="#8C50FF"/>
<path d="M229.785 159.895C230.441 159.518 230.441 158.286 229.784 157.143C229.127 156 228.063 155.38 227.407 155.757C226.751 156.134 226.751 157.366 227.408 158.509C228.064 159.652 229.129 160.272 229.785 159.895Z" fill="#8C50FF"/>
<path d="M179.333 136.829C179.987 136.452 179.984 135.224 179.327 134.087C178.67 132.949 177.608 132.333 176.955 132.71C176.302 133.087 176.305 134.315 176.961 135.453C177.618 136.59 178.68 137.207 179.333 136.829Z" fill="#8C50FF"/>
<path d="M180.143 97.2654L177.239 95.5777C176.764 95.2344 176.478 94.6849 176.468 94.0961V79.9863C176.468 79.4165 176.813 79.156 177.239 79.4002L180.143 81.0934C180.618 81.4246 180.909 81.9615 180.93 82.5424V96.6793C180.93 97.2491 180.569 97.5096 180.143 97.2654Z" fill="#E9EAF2"/>
<path d="M186.858 101.156L183.954 99.4633C183.478 99.1229 183.192 98.5747 183.183 97.9872V69.2249C183.183 68.6822 183.528 68.3891 183.954 68.6388L186.858 70.332C187.333 70.6752 187.619 71.2247 187.629 71.8135V100.576C187.607 101.14 187.262 101.401 186.858 101.156Z" fill="#8C50FF"/>
<path d="M200.218 108.933L197.313 107.245C196.836 106.904 196.55 106.353 196.542 105.764V79.8018C196.542 79.232 196.887 78.9715 197.313 79.2157L200.218 80.9034C200.693 81.2467 200.979 81.7962 200.988 82.385V108.352C200.988 108.922 200.644 109.183 200.218 108.933Z" fill="#E9EAF2"/>
<path d="M206.911 112.824L204.006 111.136C203.531 110.793 203.245 110.244 203.236 109.655V88.1429C203.236 87.6002 203.581 87.3126 204.006 87.5568L206.911 89.2499C207.387 89.5903 207.673 90.1385 207.682 90.7261V112.238C207.682 112.813 207.337 113.074 206.911 112.824Z" fill="#8C50FF"/>
<path d="M220.238 120.574L217.328 118.886C216.854 118.542 216.57 117.992 216.563 117.404V106.773C216.563 106.198 216.902 105.938 217.328 106.187L220.238 107.875C220.71 108.22 220.993 108.769 221.004 109.356V119.988C221.004 120.557 220.659 120.818 220.238 120.574Z" fill="#E9EAF2"/>
<path d="M226.926 124.465L224.043 122.772C223.567 122.431 223.281 121.883 223.272 121.295V85.1364C223.272 84.5612 223.617 84.3007 224.043 84.5503L226.948 86.2381C227.423 86.5808 227.709 87.1306 227.718 87.7196V123.879C227.697 124.448 227.352 124.709 226.926 124.465Z" fill="#8C50FF"/>
<path d="M243.25 133.956L240.345 132.263C239.869 131.923 239.583 131.375 239.574 130.787V120.15C239.574 119.581 239.919 119.32 240.345 119.564L243.25 121.257C243.727 121.599 244.013 122.15 244.02 122.739V133.37C244.02 133.94 243.675 134.201 243.25 133.956Z" fill="#E9EAF2"/>
<path d="M249.943 137.842L247.038 136.149C246.561 135.807 246.275 135.257 246.268 134.667V120.557C246.268 119.988 246.612 119.727 247.038 119.971L249.943 121.659C250.418 122.002 250.704 122.552 250.714 123.141V137.278C250.714 137.842 250.369 138.092 249.943 137.842Z" fill="#8C50FF"/>
<path opacity="0.4" d="M55.5646 268.892L31.9942 254.776C29.3225 253.169 29.6552 250.389 32.744 248.524L44.7087 241.346C47.7923 239.498 52.4441 239.278 55.1316 240.924L78.702 255.061C81.3737 256.663 81.041 259.449 77.9522 261.308L65.9875 268.486C62.9039 270.307 58.2522 270.537 55.5646 268.892Z" fill="#D6D8E5"/>
<path d="M92.2468 251.436V218.631L41.9316 212.981V245.992C41.9 247.003 42.4595 247.966 43.7264 248.682L67.2898 262.255C69.9608 263.792 74.627 263.597 77.7097 261.823L89.6709 254.931C91.4075 253.931 92.2732 252.641 92.2204 251.436H92.2468Z" fill="#D6D8E5"/>
<path d="M92.2442 222.296V218.568H88.3728L66.8714 205.681C64.1989 204.075 59.5299 204.277 56.4455 206.125L44.4774 213.328C44.2645 213.453 44.0583 213.59 43.8594 213.739L41.9317 212.714C41.9317 212.714 41.9317 216.655 41.9317 216.786C41.9 217.828 42.4598 218.831 43.7274 219.577L67.3045 233.703C69.9769 235.303 74.6459 235.101 77.7303 233.253L89.6984 226.083C91.4889 224.987 92.3392 223.617 92.2389 222.323L92.2442 222.296Z" fill="#EDF0F9"/>
<path d="M67.3051 230.346L43.7348 216.206C41.063 214.604 41.3957 211.817 44.4845 209.952L56.4492 202.775C59.5328 200.92 64.2004 200.723 66.8721 202.325L90.4425 216.464C93.1142 218.066 92.7815 220.854 89.6927 222.719L77.728 229.896C74.6444 231.751 69.9768 231.948 67.3051 230.346Z" fill="#E2E5F2"/>
<path d="M62.057 210.463V208.879H61.3093L61.0782 208.688C59.5866 207.705 57.8234 207.705 56.3318 208.688C56.1912 208.794 56.0579 208.916 55.9334 209.051L55.3481 208.879V210.463C55.4041 211.244 55.7801 211.925 56.3318 212.244C57.8234 213.227 59.5866 213.227 61.0782 212.244C61.63 211.926 62.005 211.244 62.057 210.463Z" fill="#6E48E5"/>
<path d="M58.7025 211.304C60.5551 211.304 62.057 210.178 62.057 208.789C62.057 207.4 60.5551 206.273 58.7025 206.273C56.8499 206.273 55.3481 207.4 55.3481 208.789C55.3481 210.178 56.8499 211.304 58.7025 211.304Z" fill="#8C50FF"/>
<path d="M70.3599 214.369C70.1769 214.902 69.8592 215.337 69.4596 215.602C67.9683 216.58 66.2083 216.58 64.717 215.602C64.3174 215.337 63.9997 214.902 63.8167 214.369C63.5707 213.552 63.8757 212.676 64.717 212.037C66.2083 211.06 67.9683 211.06 69.4596 212.037C70.3058 212.644 70.6059 213.52 70.3599 214.369Z" fill="#5E42D3"/>
<path d="M70.443 214.661C70.255 215.114 69.9285 215.485 69.5179 215.711C67.9855 216.543 66.177 216.543 64.6445 215.711C64.1315 215.672 63.7342 215.212 63.7342 214.658C63.7342 214.105 64.1315 213.645 64.6445 213.606C66.177 212.773 67.9855 212.773 69.5179 213.606C69.9294 213.833 70.2559 214.206 70.443 214.661Z" fill="#8C50FF"/>
<path d="M80.5063 220.525V218.941H79.7587L79.5275 218.75C78.036 217.767 76.2727 217.767 74.7812 218.75C74.6418 218.856 74.5087 218.976 74.3828 219.107L73.7975 218.941V220.525C73.8534 221.306 74.2295 221.987 74.7812 222.306C76.2727 223.289 78.036 223.289 79.5275 222.306C80.0794 221.988 80.4544 221.306 80.5063 220.525Z" fill="#6E48E5"/>
<path d="M77.1519 221.366C79.0045 221.366 80.5063 220.24 80.5063 218.851C80.5063 217.462 79.0045 216.335 77.1519 216.335C75.2993 216.335 73.7975 217.462 73.7975 218.851C73.7975 220.24 75.2993 221.366 77.1519 221.366Z" fill="#8C50FF"/>
<path d="M35.3014 204.101C35.1576 205.349 33.704 210.738 33.9916 212.587C34.2791 214.435 39.3693 217.52 39.3693 217.52L40.0721 214.36L37.2714 211.595L38.0275 206.362L35.3014 204.101Z" fill="#FFCEA9"/>
<path d="M39.2149 198.792C38.1973 198.315 36.9857 198.681 36.3982 199.644C35.6528 200.887 34.8808 205.14 34.8009 205.869C34.8009 205.869 35.8658 207.32 37.4152 207.079L39.2149 198.792Z" fill="#EDEDED"/>
<path d="M44.992 258.878C46.0935 259.183 47.2701 259.038 48.2665 258.476C49.0546 258.503 53.3408 256.654 53.9211 258.203C54.4536 259.563 52.574 260.817 51.5837 261.058C49.4219 261.594 47.8246 262.665 46.9514 262.858C46.3071 262.992 45.4658 263.083 44.9547 262.569C44.3317 261.958 44.385 259.687 44.992 258.878Z" fill="#38226D"/>
<path d="M46.9514 262.478C47.8246 262.295 49.4219 261.208 51.5837 260.683C52.4143 260.479 53.8466 259.569 53.9904 258.476C54.182 259.724 52.5101 260.833 51.5837 261.058C49.4219 261.594 47.8246 262.665 46.9514 262.858C46.3071 262.992 45.4658 263.083 44.9547 262.569C44.8147 262.418 44.7156 262.233 44.6672 262.033C45.315 262.538 46.163 262.703 46.9514 262.478Z" fill="#9C73FF"/>
<path d="M38.0488 255.738C39.1497 256.045 40.3263 255.903 41.3234 255.342C42.1114 255.342 46.3923 253.52 46.978 255.069C47.5104 256.424 45.6309 257.678 44.6405 257.924C42.4788 258.46 40.8761 259.531 40.0082 259.719C39.3586 259.853 38.5227 259.944 38.0062 259.435C37.3886 258.819 37.4418 256.547 38.0488 255.738Z" fill="#38226D"/>
<path d="M40.0082 259.344C40.8761 259.156 42.4788 258.074 44.6405 257.544C45.4712 257.345 46.9035 256.429 47.0472 255.342C47.2389 256.59 45.567 257.694 44.6405 257.924C42.4788 258.46 40.8761 259.531 40.0082 259.719C39.3586 259.853 38.5227 259.944 38.0062 259.435C37.8712 259.281 37.7745 259.098 37.724 258.899C38.3736 259.4 39.2197 259.565 40.0082 259.344Z" fill="#9C73FF"/>
<path d="M37.9636 244.033C38.1481 242.433 38.4778 240.853 38.9487 239.313C38.9487 239.313 38.6558 235.242 38.5067 231.379C38.3417 226.997 36.8295 223.14 38.0222 219.647L51.4559 222.653C51.4559 222.653 50.6466 240.122 50.4655 242.233C50.3681 243.88 50.1671 245.519 49.8639 247.14C49.2516 250.531 48.2665 258.599 48.2665 258.599C46.8502 259.429 44.9813 258.969 44.9813 258.969C44.9813 258.969 45.0878 248.79 45.1783 246.326C45.2901 243.342 45.3807 243.567 45.3807 243.567L44.9334 236.137L44.6459 232.44C44.6459 232.44 44.2732 235.151 44.0282 237.578C43.8206 239.688 43.3147 241.601 42.745 245.533C42.2552 248.945 41.4565 255.803 41.4565 255.803C40.0349 256.633 38.1074 255.942 38.1074 255.942C38.1074 255.942 37.5803 246.99 37.9636 244.033Z" fill="#8C50FF"/>
<path d="M39.9337 198.862C40.9613 198.915 41.7227 199.178 41.8505 198.862C41.9572 198.331 42.0336 197.794 42.0795 197.254C41.9623 196.954 41.8612 196.633 41.8612 196.633C40.578 195.84 40.1733 194.442 40.0029 192.813C39.7154 190.033 41.2062 187.601 43.9697 187.312C46.568 187.038 48.4848 188.876 48.9907 191.399C49.2675 192.642 49.816 194.999 49.0758 197.045C48.6605 198.192 48.1281 199.103 47.5956 199.279C47.0805 199.263 46.5667 199.216 46.0569 199.14C46.0569 199.14 45.9184 199.912 45.8226 200.404C45.7267 200.897 45.764 201.165 46.7437 201.77C47.7234 202.376 45.2582 203.645 43.6608 203.522C42.0635 203.399 40.2425 202.424 39.742 201.379C39.1723 200.206 39.2202 198.829 39.9337 198.862Z" fill="#FFCEA9"/>
<path d="M41.4033 199.006C41.1211 199.719 41.8399 200.613 43.762 201.192C45.6841 201.77 45.8599 201.02 45.8599 201.02C47.1367 201.596 48.381 202.241 49.587 202.954C50.7424 203.769 51.2536 206.115 51.408 210.079C51.589 214.665 51.605 221.469 51.4506 222.642C51.4506 222.642 49.3208 224.785 46.5361 224.576C43.7514 224.367 39.1403 221.897 38.0169 219.995C38.0488 215.972 38.5174 215.319 37.8678 213.004C36.3876 207.701 35.6102 205.504 36.329 202.006C36.92 199.097 37.7507 198.738 38.8954 198.765C39.7351 198.799 40.5723 198.88 41.4033 199.006Z" fill="#F4F4F4"/>
<path d="M55.7528 213.883C53.4845 214.456 52.9574 213.02 52.6592 211.831C51.9351 208.949 51.5517 206.351 51.014 204.717C50.3803 202.788 49.7148 202.483 48.7883 202.108C47.7234 201.663 46.7544 202.595 47.1164 205.049C47.5632 207.896 48.2581 210.698 49.193 213.422C49.4752 214.317 50.1035 215.908 51.0512 216.679C52.2173 217.628 53.9797 217.59 56.642 216.926C57.7761 216.637 59.022 215.956 61.1678 214.949C61.7428 214.681 62.1901 214.499 63.2976 213.979C64.4096 213.48 65.3838 212.715 66.1355 211.751C66.7159 210.904 66.7904 210.508 66.668 210.315C66.5455 210.122 66.258 210.128 65.9492 210.487C65.501 211.086 64.9491 211.6 64.3199 212.003C64.3199 212.003 65.0334 211.258 65.422 210.776C65.7693 210.347 66.0576 209.873 66.2793 209.367C66.4816 208.874 66.061 208.204 65.7468 208.558C65.4327 208.912 65.273 209.265 64.6819 209.972C64.3685 210.35 64.011 210.688 63.617 210.979C63.9806 210.486 64.3029 209.962 64.5808 209.415C64.8315 208.988 64.9553 208.497 64.9375 208.001C64.9375 207.744 64.5595 207.438 64.2187 207.926C63.8898 208.596 63.4822 209.223 63.0047 209.795C62.4723 210.331 62.0463 210.642 62.0357 210.492C62.025 210.342 62.3445 210.047 62.5308 209.42C62.7172 208.794 62.5308 208.124 62.1847 208.054C61.8387 207.985 61.9079 208.001 61.6523 208.59C61.2708 209.195 60.9276 209.823 60.6247 210.47C60.4465 211.074 60.127 211.625 59.6929 212.078C59.1338 212.678 57.9039 213.337 55.7528 213.883Z" fill="#FFCEA9"/>
<path d="M47.9471 201.712C49.4592 201.487 50.5294 202.172 51.195 204.476C51.8606 206.779 52.3291 208.649 52.3291 208.649C51.7318 209.518 50.8269 210.123 49.8 210.342C47.9897 210.787 47.3401 209.913 47.3401 209.913C47.3401 209.913 46.8396 207.503 46.5254 205.858C46.2113 204.213 46.0782 201.99 47.9471 201.712Z" fill="#EDEDED"/>
<path d="M48.8948 191.04C48.8948 191.04 51.2802 187.387 46.1048 186.642C42.3776 186.106 39.9763 188.517 39.7154 191.137C39.4492 193.638 40.9826 196.237 42.0848 197.265C43.1712 197.543 44.3217 197.404 45.3114 196.874C45.3748 196.194 45.3997 195.511 45.386 194.828C45.386 194.828 43.549 190.97 48.8948 191.04Z" fill="#3A2C6D"/>
<path opacity="0.4" d="M206.297 261.615C213.708 261.615 219.715 258.236 219.715 254.068C219.715 249.9 213.708 246.522 206.297 246.522C198.887 246.522 192.88 249.9 192.88 254.068C192.88 258.236 198.887 261.615 206.297 261.615Z" fill="#D6D8E5"/>
<path d="M207.063 180.702C207.622 179.835 211.983 179.26 213.414 182.766C213.974 184.096 213.873 187.496 214.326 189.629C214.779 191.763 215.846 192.976 216.232 194.705C216.618 196.434 215.992 199.339 211.603 199.855C207.214 200.371 203.843 198.902 202.809 197.572C201.775 196.242 201.752 193.412 202.809 191.89C203.866 190.369 204.704 189.14 204.676 187.161L207.063 180.702Z" fill="#3A2C6D"/>
<path d="M209.937 180.101C209.937 180.101 206.661 179.202 204.676 180.883C203.343 182.055 202.805 183.834 203.278 185.501C203.541 186.485 204.072 187.826 204.894 187.9C205.716 187.975 209.937 180.101 209.937 180.101Z" fill="#3A2C6D"/>
<path d="M211.189 188.597C211.189 188.597 210.971 192.066 211.038 192.321C211.105 192.577 212.47 192.853 212.855 193.13C213.241 193.407 210.871 196.955 209.669 197.476C208.467 197.998 204.738 196.662 204.475 194.901C204.24 193.273 205.543 192.013 206.046 191.571C206.388 191.54 206.731 191.531 207.075 191.544L207.186 189.863C208.819 189.368 211.189 188.597 211.189 188.597Z" fill="#FFCEA9"/>
<path d="M202.384 195.157C202.384 195.056 201.825 195.338 201.825 195.343C201.825 195.348 201.562 204.254 201.104 205.063C199.935 206.952 196.844 210.154 196.765 210.511C196.536 211.575 197.196 210.623 198.258 210.511C198.856 210.442 202.373 207.058 203.161 206.287L203.211 206.313V206.228L203.312 206.127C203.332 205.886 203.332 205.644 203.312 205.404C204.794 195.726 202.993 195.082 202.384 195.157Z" fill="#FFCEA9"/>
<path d="M211.687 192.662C212.716 192.811 213.884 193.332 214.046 193.864C214.469 195.789 214.369 197.785 213.755 199.663C212.867 201.898 212.268 203.318 211.754 204.281C211.754 204.281 207.321 206.09 203.743 203.978C203.743 203.978 203.497 201.584 203.48 200.301C200.181 197.562 203.005 194.183 205.8 191.56C206.135 191.531 206.471 191.531 206.806 191.56C206.806 191.56 204.313 194.369 206.046 195.966C209.764 194.87 210.502 193.273 211.687 192.662Z" fill="#F4F4F4"/>
<path d="M204.374 184.293C204.738 182.064 206.432 180.377 208.847 180.51C210.843 180.613 212.546 181.919 213.076 183.753C213.606 185.587 212.844 187.538 211.184 188.597C211.1 188.935 210.975 189.262 210.809 189.571C209.954 190.518 207.678 191.119 206.929 191.129C206.281 191.129 205.722 190.56 205.112 189.603C203.849 187.607 204.173 185.394 204.374 184.293Z" fill="#FFCEA9"/>
<path d="M209.602 180.553C211.279 180.867 212.688 181.324 213.152 182.904C213.465 184 213.878 186.097 213.487 186.953L213.241 187.586L211.189 188.597C211.189 188.597 210.228 187.836 210.53 185.607C210.518 185.306 210.417 185.015 210.239 184.766C210.111 184.555 210.015 184.328 209.954 184.091C209.71 183.489 209.234 182.998 208.623 182.718C207.097 181.904 204.861 182.606 204.548 182.904C205.438 181.084 207.545 180.104 209.602 180.553Z" fill="#3A2C6D"/>
<path d="M212.688 251.099C211.827 251.764 210.491 251.306 210.451 251.365C209.449 252.182 208.4 252.946 207.309 253.652C206.75 254.051 205.94 254.589 206.091 255.355C206.359 256.733 208.674 256.313 209.546 255.887C210.418 255.461 211.133 254.77 211.961 254.291C212.548 253.945 213.129 253.759 213.224 253.057C213.252 252.615 212.839 251.083 212.688 251.099Z" fill="#38226D"/>
<path d="M213.191 252.759C213.073 253.44 212.503 253.626 211.916 253.972C211.078 254.466 210.34 255.185 209.467 255.605C208.595 256.025 206.644 256.376 206.079 255.397C206.387 256.722 208.662 256.307 209.523 255.887C210.384 255.467 211.111 254.77 211.938 254.291C212.526 253.945 213.107 253.759 213.202 253.057C213.206 252.957 213.203 252.857 213.191 252.759Z" fill="#9C73FF"/>
<path d="M206.666 249.955C205.878 250.567 204.693 250.221 204.637 250.279C203.718 251.022 202.759 251.718 201.763 252.365C201.271 252.732 200.505 253.221 200.645 253.924C200.891 255.185 203.01 254.796 203.815 254.413C204.62 254.03 205.263 253.386 206.024 252.939C206.583 252.62 207.091 252.455 207.175 251.806C207.231 251.413 206.806 249.939 206.666 249.955Z" fill="#38226D"/>
<path d="M207.17 251.546C207.063 252.168 206.538 252.338 206.001 252.652C205.235 253.11 204.559 253.764 203.765 254.153C202.971 254.541 201.182 254.86 200.662 253.961C200.942 255.174 203.027 254.796 203.821 254.413C204.615 254.03 205.269 253.386 206.029 252.94C206.588 252.62 207.097 252.455 207.181 251.806C207.188 251.719 207.184 251.632 207.17 251.546Z" fill="#9C73FF"/>
<path d="M202.037 211.969C202.418 209.149 203.508 205.052 203.508 205.052C204.538 205.511 205.653 205.773 206.789 205.824C208.456 205.818 210.118 205.665 211.754 205.366C212.288 206.254 212.872 207.114 213.504 207.941C214.359 209.069 216.02 211.538 215.617 215.852C215.354 218.672 213.694 230.648 213.694 230.648C214.341 232.661 214.685 234.751 214.717 236.857C214.56 239.36 214.213 241.849 213.677 244.305L212.688 251.099C212.688 251.099 211.368 252.008 210.451 251.365L210.569 244.715C210.457 243.087 210.284 240.687 210.177 239.155C209.999 236.654 209.529 232.691 209.395 231.707C209.261 230.722 208.925 228.983 208.763 227.046C208.601 225.11 207.841 215.251 207.841 215.251L207.734 217.097C207.734 217.097 207.628 220.093 207.175 223.79C206.722 227.488 206.566 229.11 206.566 229.11C206.995 229.856 207.295 230.663 207.455 231.499C207.533 232.297 208.489 238.618 207.919 241.831L206.739 250.008C206.146 250.4 205.39 250.495 204.71 250.263L204.016 242.022C203.552 238.889 202.568 232.244 202.418 231.382C202.082 229.641 201.884 227.879 201.825 226.11C201.579 222.535 201.657 214.783 202.037 211.969Z" fill="#FFCEA9"/>
<path d="M211.754 204.281L214.303 209.149C214.303 209.149 218.217 214.565 214.164 228.488L214.918 232.787C214.918 232.787 207.293 237.442 202.188 232.787C202.188 232.787 200.422 219.917 201.361 213.985C201.886 210.576 202.681 207.209 203.737 203.914C203.737 203.914 204.989 205.228 211.419 204.361" fill="#8C50FF"/>
<path d="M205.8 191.56C205.8 191.56 203.776 190.97 201.624 195.242L202.429 195.699C202.429 195.699 204.548 192.656 205.8 191.56Z" fill="#EDEDED"/>
<path d="M189.995 214.709L198.705 209.894L204.956 213.325L196.245 218.145L189.995 214.709Z" fill="#F4F4F4"/>
<path d="M197.582 210.245C197.035 210.297 196.507 210.46 196.033 210.724C195.859 210.868 195.672 210.998 195.474 211.112C195.39 211.149 195.306 211.203 195.217 211.24C195.083 211.286 194.963 211.361 194.864 211.458C194.767 211.595 194.715 211.756 194.713 211.921C194.669 212.118 194.658 212.321 194.68 212.522C194.758 212.82 195.082 212.793 195.239 212.586C195.324 212.482 195.373 212.356 195.379 212.224C195.388 211.969 195.525 211.734 195.748 211.591L197.828 210.362C197.778 210.279 197.681 210.233 197.582 210.245Z" fill="#FFCEA9"/>
<path d="M214.152 195.402C213.867 194.274 212.939 194.635 212.14 193.976C210.289 196.471 211.519 203.217 211.771 203.935L204.659 208.25L204.179 208.532C203.369 209.038 202.475 209.409 201.534 209.628C200.824 209.708 200.455 210.66 199.695 210.745C199.576 210.749 199.472 210.82 199.429 210.926C199.386 211.031 199.414 211.15 199.499 211.229C199.801 211.506 200.617 211.277 201.176 210.66C201.174 210.674 201.174 210.688 201.176 210.702C201.186 210.903 201.304 211.085 201.489 211.181C201.53 211.205 201.576 211.219 201.624 211.224C201.623 211.269 201.637 211.313 201.663 211.352C201.745 211.51 201.904 211.62 202.088 211.644C202.17 211.868 202.398 212.014 202.647 212.001C202.81 211.993 202.964 211.926 203.077 211.814C203.684 211.594 204.219 211.228 204.631 210.75C204.996 210.39 205.38 210.049 205.783 209.729C207.712 208.936 213.498 206.585 213.755 206.249C214.158 205.744 214.566 196.998 214.152 195.402Z" fill="#FFCEA9"/>
<path d="M214.801 198.429C214.801 198.429 212.526 199.397 210.636 198.493L210.91 195.104C210.91 195.104 210.938 193.284 212.643 193.103C214.348 192.922 215.243 195.003 214.801 198.429Z" fill="#EDEDED"/>
</svg>
